<?xml version="1.0" encoding="utf-8"?>
<!-- Generator: Adobe Illustrator 18.0.0, SVG Export Plug-In . SVG Version: 6.00 Build 0)  -->
<!DOCTYPE svg PUBLIC "-//W3C//DTD SVG 1.1//EN" "http://www.w3.org/Graphics/SVG/1.1/DTD/svg11.dtd">
<svg version="1.1" id="Слой_1" xmlns="http://www.w3.org/2000/svg" xmlns:xlink="http://www.w3.org/1999/xlink" x="0px" y="0px"
	 viewBox="0 49.3 1024 668.6" enable-background="new 0 49.3 1024 668.6" xml:space="preserve">
<path fill="#FF8C00"      d="
	M1004.9,709.7h19.1L867.4,392.7c-0.3-4.6-0.8-9.7-1.6-14.7c-4.8-30.9-21-74-69.6-109.2l-10.4-22.7c0-10.2-0.5-20.5-1.3-30.7
	c0-0.1,0-0.2,0-0.4c-0.5-3.2-13-77.6-64.7-118.3c-3.9-4.3-39.9-41.7-108-41.7c-41.1,0-85.3,13.8-131.5,41
	c-1.6,0.9-24.9,14.1-51.4,42.1c-24.8,26.1-57.1,70.6-70.1,134.2c0,0.1,0,0.3-0.1,0.4c-0.1,0.6-0.9,8.6-1.1,20.9l-12.1,43.7
	c-1.4-4.1-3-8.3-4.7-12.5c0-0.1-0.1-0.1-0.1-0.2c-0.7-1.5-17.4-36.2-48.9-52.5c-15.5-8-33.3-12.3-51.3-12.3
	c-27.3,0-67.9,9.6-106.5,55.1c0,0.1-0.1,0.1-0.1,0.2c-0.6,0.8-15.8,20.6-26.3,52.2c-5.1,15.3-9.5,35.9-9.7,58.3L5,683.4h16.3
	l77.3-240.1c0.3,3.5,0.8,7.5,1.4,11.1l-51.6,229h5.2c0.3,0,5.1,0.1,5.4,0c2.8-0.5,68.7-9.8,149.1-63.1c11.3,7.9,23.3,15.8,35.9,22.3
	l2.5,47.8h1.9l-7.6,27.4h29.1l13.1-58.3c16.8,6.1,34.6,11.6,53.2,15.5l-3.2,14.4h14.1l2.4-12.2c1.7,0.3,3.4,0.2,5,0.5
	c0,0,0.3,0.6,0.7,0.7l-1.1,39.4H375l-0.2-38.3c4.9-0.1,10.7,0,17.3-0.6l-2.3,10.5h17.9l2.3-13.4c3.9-0.7,8.1-1.1,12.4-2.1l-4.5,15.4
	h15.4l5.2-19.8c5-1.4,10.1-2.6,15.5-4.3l4.6,24.2H479l-7.3-30.9c6.6-2.6,13.4-5,20.5-8.2l6.7,39.1h19.5l-0.8-4.3
	c1.5-0.1,3.5,0,6-0.2l0.1,4.5h18.8l-0.3-7.4c25.2-3.9,65.1-11.6,108.4-27.9l2.4,55.5h26.1l-6.9-64.6c37.1-16,69.6-35.3,97.1-58.3
	l5.8,123h22.8l-15.9-134.5c36.6-34.1,62.7-74.5,77.8-120.9l106,255.4h33L866.8,422.7c0.5-4.2,0.8-8.5,1-13.7L1004.9,709.7z
	 M856.9,380.2l-10.3-2l-5.7-12.3c-0.5-2.5-1.1-4.9-1.8-7.3c0.2,0,0.3-0.1,0.5-0.1l10.9-4.6c2.7,8,4.7,16.2,6.1,24.8
	C856.8,379.2,856.8,379.7,856.9,380.2z M834.6,489.7l-7-9.4c-0.3-0.4-0.7-0.8-1.2-1c4-7.8,7-14.7,9.1-20.1l7.4,8.4
	c0.4,0.4,0.9,0.7,1.4,0.9C841.3,475.8,838.1,482.9,834.6,489.7z M816.8,519.7l-7.3-10.2c-0.2-0.3-0.5-0.6-0.9-0.8
	c5.6-8.1,10.3-15.8,14.2-22.8l7.1,9.5c0.3,0.4,0.7,0.8,1.2,1C826.7,504.4,821.9,512.2,816.8,519.7z M793.3,549.5l-6.8-12.6
	c6.8-7.6,12.8-15.1,18-22.2l7.3,10.2c0.2,0.3,0.5,0.6,0.8,0.8C806.5,534.1,800,542,793.3,549.5z M834.7,321.2l-9.1,4.8
	c-2.3-3.8-4.6-7.3-7.1-10.6c0.3-0.2,0.5-0.5,0.7-0.7l5.2-7.4C828.3,311.8,831.6,316.4,834.7,321.2z M838.5,327.3
	c3.7,6.4,6.9,13,9.6,19.9c0,0-0.1,0-0.1,0l-10.8,4.6c-2.2-6.8-4.9-13.3-8.1-19.5L838.5,327.3z M819.8,301.8l-5.1,7.2l-10.2-22.1
	C810,291.6,815.1,296.6,819.8,301.8z M784.7,273l7,16.9c-2.9-2-5.7-3.6-8.1-4.9C784.1,281,784.4,277,784.7,273z M685.2,489
	l-18.9-22.9c10.5-13.4,16.1-22,16.5-22.6c0-0.1,0.1-0.1,0.1-0.2c1.4-2.4,2.7-4.7,4-7.1l22,21.1c0,0,0,0.1-0.1,0.1
	C700.6,469.7,692.5,480.2,685.2,489z M713,451.4l-22.4-21.5c6.5-11.8,12.4-23.3,17.8-34.8l26.5,17.8c0.1,0.1,0.3,0.2,0.4,0.2
	C727.9,427.6,720.3,440.4,713,451.4z M738.5,406.8l-27-18.2c4-8.9,7.7-17.6,11-26.2l27.4,17.2c0.2,0.1,0.4,0.2,0.6,0.3
	C746.6,389.3,742.6,398.3,738.5,406.8z M753,373.2l-28-17.6c4-10.9,7.4-21.5,10.3-32l28.8,13.1c0.2,0.1,0.4,0.1,0.6,0.2
	C761.3,349.6,757.3,361.8,753,373.2z M516.4,626.6l-6.3-22c4.1-2.4,8.1-4.9,12.1-7.4l0.4,26C520.6,624.3,518.5,625.5,516.4,626.6z
	 M380.7,229.8C380.8,229.8,380.8,229.9,380.7,229.8l20.2,7.6l-9.7,19.1c-0.1,0.1-0.1,0.3-0.1,0.4l-17.4-7
	C375.8,243,378.2,236.3,380.7,229.8z M393.7,202l16.9,11.8c0.1,0.1,0.2,0.1,0.3,0.2c-2.7,5.7-5,11.4-7.1,16.9l-20.4-7.6
	C386.6,215.8,390.1,208.7,393.7,202z M412.6,171.8l13.8,12.7c0.2,0.1,0.3,0.3,0.5,0.4c-4.9,7.6-9.1,15.2-12.9,22.6l-16.6-11.6
	c-0.1-0.1-0.2-0.1-0.3-0.2C402.1,187,407.4,179,412.6,171.8z M456.1,217.8l28.7-37.6c2.5-3.3-2.7-11.4-11.5-18.1
	c-3.8-2.9-7.8-5.1-11.2-6.4c2.5-2.2,5.4-4.8,8.8-7.6c0.9,2.2,2,4.5,3.4,6.8c5.6,9.6,13.1,15.7,16.6,13.6l40.8-24
	c3.5-2.1,1.8-11.5-3.8-21.1c-2-3.4-4.2-6.3-6.4-8.7c3.5-1.8,7.1-3.5,10.9-5.1c0.1,3.2,0.6,7,1.6,10.9c2.8,10.8,8.2,18.7,12.2,17.7
	l45.8-11.8c4-1,5-10.6,2.2-21.4c-1-3.9-2.4-7.5-3.9-10.4c3.6-0.3,7.2-0.4,10.9-0.4c1.4,0,2.7,0,4.1,0.1c-1.5,3.1-2.9,7.1-3.7,11.6
	c-2.1,10.9-0.5,20.4,3.5,21.2l46.5,9c4,0.8,9-7.4,11.1-18.4c0.6-3.2,0.9-6.3,0.9-9.1c5.9,2.8,11.8,6.1,17.5,9.7
	c-3.7,1.4-8.2,4.4-12.5,8.4c-8.1,7.6-12.4,16.2-9.6,19.2l32.5,34.5c2.8,3,11.7-0.8,19.8-8.4c3-2.8,5.5-5.8,7.3-8.6
	c2.7,5.3,5.4,11.4,7.9,18c-3.1-2-9.4-2.1-16.2,0.1c-8.6,2.8-14.6,8.3-13.3,12.2l14.7,45c1.3,3.9,9.3,4.8,17.9,2c3-1,5.6-2.2,7.7-3.7
	c0.2,3.4,0.2,6.9,0.2,10.5c-6.7-0.8-13.6-1.1-20.5-1.1c-19.2,0-43.9,3.1-72.5,13.4c0,0-0.1,0-0.1,0c-0.3,0.1-0.6,0.2-0.9,0.4
	c-28.9,10.6-61.7,28.5-96.7,58.2c-0.2,0.2-0.4,0.4-0.6,0.6c-0.5,0.6-34.8,41.6-69.8,64.4c-0.1,0-0.3,0-0.4,0.1
	c-0.9,0.2-19.1,14.9-38.4,14.8c-10.7-0.1-18.7-5.2-24.5-15.9c-0.8-1.7-12.8-28.4-14-67.5c-0.4-12.7,0.3-27.6,3.4-44
	c1.1,0.7,2.3,1.3,3.5,1.9c9.9,5,19.5,6.2,21.3,2.5l21.5-42.2c1.9-3.7-4.7-10.7-14.6-15.8c-4.4-2.2-8.7-3.7-12.3-4.3
	c1.6-3.2,3.3-6.4,5.1-9.7c2.1,2.8,5.1,5.8,8.8,8.6C444.4,218.2,453.6,221,456.1,217.8z M516.7,87.2l5.6,16.8
	c-7.4,3.5-14.2,7.1-20.4,10.8L493.5,99c0,0,0,0,0-0.1C501.3,94.6,509,90.7,516.7,87.2z M547.2,75.2l2.1,18.2
	c-7.1,2.3-14,4.9-20.4,7.7l-5.6-16.7C531.3,80.8,539.3,77.8,547.2,75.2z M556.2,91.3L554.1,73c9.9-2.9,19.6-5.1,29.2-6.6l0.5,19.5
	C574.3,87,565,88.9,556.2,91.3z M657.7,71l-8.1,22c0,0,0,0,0,0.1c-9.3-3.1-18.8-5.3-28.3-6.6l3.8-21.5C637.1,65.8,648,68,657.7,71z
	 M688.9,84.6C688.9,84.6,688.9,84.6,688.9,84.6l-12,20.4c0,0,0,0,0,0.1c-5.4-3-10.8-5.6-16.3-7.9c-0.5-0.4-1-0.7-1.5-0.8l-0.8-0.1
	c-0.7-0.3-1.3-0.5-2-0.8c0,0,0,0,0,0l8.1-22.2C674,76.6,682.1,80.6,688.9,84.6z M711.7,101.7l-14,17.9c-5-4.7-8.3-7.1-8.7-7.3
	c-2-1.3-4-2.5-6-3.8c0,0,0,0,0,0l11.9-20.2C703.7,94.2,709.3,99.3,711.7,101.7z M758.4,163.7c-0.2,0.1-0.3,0.1-0.5,0.2L735,178.5
	c-3.4-9.5-7.3-17.7-11.3-24.7c0.2-0.1,0.4-0.3,0.6-0.4l18.9-17C749.3,145.4,754.3,154.7,758.4,163.7z M773.4,207.4l-29.4,6
	c-1.6-10.3-3.9-19.7-6.6-28.1c0.3-0.1,0.5-0.2,0.8-0.4l23.1-14.6C767.6,185.4,771.4,199,773.4,207.4z M775.3,216.3
	c1,11.9,1.4,23.9,1.2,35.8l-30-8c-0.1-8.3-0.7-16.2-1.6-23.6l30-6.1c0,0,0,0,0,0C775.1,215.4,775.2,216,775.3,216.3z M772.9,297.4
	l-30.3-6.1c0.6-3.4,1.1-6.9,1.6-10.3c8.6,1.6,17.1,4.1,25.2,7.5c0.1,0,0.2,0.1,0.3,0.1c0,0,1.6,0.5,4.1,1.7
	C773.6,292.6,773.2,295,772.9,297.4z M518.5,360.7C518.5,360.7,518.6,360.7,518.5,360.7l0.1,0.8L518.5,360.7z M465.4,424.1
	l-2.3-22.4c0-0.4-0.1-0.7-0.3-1c4-1.8,8.1-3.9,12.2-6.3l5.4,21.1C475.1,419.1,470.1,421.9,465.4,424.1z M392.9,265.3
	c0.3,0.1,0.7,0.2,1,0.2c-1.7,8.8-2.9,17.2-3.5,25.1l-23.1-4.5c-0.2,0-0.4,0-0.6-0.1c0.3-6.8,0.7-11.2,0.8-12.2
	c1.2-5.9,2.6-11.6,4.1-17.1L392.9,265.3z M368.3,329.5c-1.6-13.8-1.9-26.5-1.7-36.3l23.3,4.5c-0.3,6.1-0.3,11.9-0.1,17.4
	c0.2,5.6,0.6,11,1.1,16.1l-22.1,2L368.3,329.5z M391.7,338.3c0,0,0.1,0,0.1,0c1.3,9,3,16.9,4.7,23.6c-0.2,0.1-0.4,0.1-0.6,0.2
	l-18.6,9.2c-2.6-7.6-4.6-15.5-6.1-23.3l-1.2-7.7L391.7,338.3z M398.5,368.8c3.2,10.5,6,16.6,6.3,17.1c0,0.1,0.1,0.1,0.1,0.2
	c2.1,3.9,4.5,7.2,7.1,10.1c-0.2,0.2-0.4,0.4-0.5,0.7l-9.1,15.7l-5.2-4.7c-7.4-8.7-13.1-19-17.4-29.9L398.5,368.8z M416.9,400.9
	c4.9,3.5,10.4,5.5,16.5,6v23.7c-9.1-0.8-15.7-4.4-19-6.8l-7.1-6.4L416.9,400.9z M438.3,439.8c2.5,0,4.9-0.2,7.5-0.5l-13.1,58.1
	l-15-61.7C422.9,438,429.8,439.8,438.3,439.8z M440.4,430.6v-23.8c5.1-0.4,10.2-1.6,15.2-3.4l2.6,22.6l-3.3,1.9
	C449.6,429.5,445.5,430.3,440.4,430.6z M500.2,411.6L476,493l-12.6-58.1C475.3,430.3,487.6,422.5,500.2,411.6z M486.6,411l-5.2-20.6
	c5.7-3.7,11.3-7.8,16.7-12.1l3.9,19.5C496.6,403,491.5,407.3,486.6,411z M507.9,391.2l-3.5-17.9c2.7-2.2,5.3-4.5,7.8-6.8l2.3,15.8
	L507.9,391.2z M525.7,353.2c9.1-8.6,15.9-16.1,20.6-21.3l4.4,15.3c-11.8,10.5-19.9,19.2-24.9,23.8V353.2z M557.3,342.1l-5-16.5
	c0.2-0.2,0.4-0.4,0.5-0.6c5.5-4.7,11-9,16.4-13.1l4.3,15.3c0.1,0.4,0.3,0.8,0.6,1.2C568,333.1,562.4,337.7,557.3,342.1z M580,324
	l-4.3-15.3c-0.1-0.4-0.3-0.8-0.6-1.1c6-4.3,11.9-8.3,17.7-12l4.6,15.2c0.1,0.3,0.2,0.6,0.4,0.9c-5.4,3.5-10.5,7.1-15.2,10.5
	C581.7,322.8,580.8,323.4,580,324z M603.9,307.7l-4.9-16c6.1-3.7,12-7,17.8-9.9l3.2,15.6c0.1,0.3,0.2,0.6,0.3,0.8
	C614.6,301.3,609.1,304.5,603.9,307.7z M626.7,294.7l-3.3-16.2c6.7-3.2,13.2-6,19.6-8.5l3.4,15.5C639.6,288.4,633,291.5,626.7,294.7
	z M653.1,282.9l-3.4-15.3c9.5-3.3,18.5-5.8,27-7.7l1.2,14.5c0,0.2,0.1,0.4,0.1,0.5C669.5,277.1,661.1,279.8,653.1,282.9z
	 M684.9,273.3l-1.2-14.8c8.6-1.6,16.7-2.4,24.1-2.8l-2.2,14.5C698.6,270.8,691.7,271.8,684.9,273.3z M715,255.5c0.7,0,1.3,0,2,0
	c6.8,0,13.6,0.3,20.3,1.1c-0.2,4.6-0.5,9.3-1,14c-5.6-0.7-11.3-1-17-1c-2.1,0-4.2,0.1-6.3,0.2L715,255.5z M766.5,330l-29.3-13.3
	c1.6-6.2,3-12.3,4.1-18.4l30.3,6.1c0,0,0.1,0,0.1,0C770.3,313.2,768.5,321.7,766.5,330z M774.9,280.8c-1.1-0.4-1.9-0.7-2.2-0.8
	c-8.9-3.6-18.1-6.3-27.5-8.1c0.5-4.7,0.8-9.4,1-14.1c14.9,2.6,25.2,6.6,29.7,8.7C775.8,271.3,775.4,276,774.9,280.8z M739.2,130.5
	c-0.1,0.1-0.2,0.1-0.3,0.2l-18.7,16.9c-0.4-0.7-0.8-1.3-1.2-1.9c-5.7-8.8-11.4-15.8-16.3-21c0.1-0.1,0.2-0.2,0.3-0.4l14-17.9
	C725.5,113.6,732.9,121.8,739.2,130.5z M617.9,64.4l-3.7,21.2c-4.3-0.4-8.7-0.6-13.1-0.6c-3.4,0-6.8,0.1-10.2,0.4l-0.5-19.8
	c7.2-0.8,14.2-1.3,21.2-1.3C613.8,64.2,615.8,64.3,617.9,64.4z M484.6,104c0,0,0.1,0,0.1-0.1c0.9-0.5,1.7-1,2.6-1.5l8.6,16
	c-1.6,1-3.1,2-4.6,3l-16.6,9.8l-9.2-13.7c0-0.1-0.1-0.1-0.2-0.2C476.7,108.5,484.5,104.1,484.6,104z M459.7,121.7l9.3,13.9
	c-0.2,0.7-0.4,1.4-0.4,2.3c-9.1,7.4-15.7,13.5-19.2,17l-11.9-12.7c0,0-0.1-0.1-0.1-0.1C445.4,134,453,127.2,459.7,121.7z
	 M432.6,147.3l12.1,12.9c-5.1,6.3-9.7,12.5-13.9,18.7L416.9,166C422.3,159,427.6,152.8,432.6,147.3z M316.6,424
	c0,0.7,1.5,74.4-104.4,155.4c-23-19.1-41.7-41.6-55.6-67c-1.3-2.7-36.6-76-12.9-137.3c11.9-30.7,36.7-53.5,73.7-67.9
	c1.3-0.3,9.5-2.4,20.5-2.4c14.5,0,35.1,3.5,51.5,20.2c19.2,19.6,28.3,52.8,27.3,98.6C316.6,423.8,316.6,423.9,316.6,424z
	 M261.2,567.4l-6.8-12.4c5.4-5.3,10.4-10.5,15-15.6l7.2,13.7C271.5,558,266.4,562.7,261.2,567.4z M281.9,547.9l-6.8-13
	c-0.2-0.4-0.5-0.7-0.8-1c3.9-4.6,7.6-9.1,10.9-13.5l6.6,11.1l-2.4,8.7C286.9,542.8,284.4,545.4,281.9,547.9z M294.4,522.1l-3.9-6.5
	c-0.3-0.4-0.6-0.8-1-1c4.6-6.4,8.5-12.4,12-18.2L294.4,522.1z M241.5,595.8l0.3,4.8c-1.2-0.7-2.3-1.5-3.5-2.2
	C239.4,597.6,240.4,596.7,241.5,595.8z M232.1,575.1l5.7,11.1c0.1,0.2,0.2,0.4,0.4,0.6c-2.6,2.1-5.3,4.2-7.9,6.2
	c-3.7-2.5-7.2-5.1-10.7-7.8C223.9,581.8,228.1,578.5,232.1,575.1z M112.7,381.8l16.5,7.5c0.2,0.1,0.4,0.2,0.6,0.2
	c-1.7,7.8-2.8,15.6-3.2,23.3c0,0,0,0,0,0l-19.1-0.7C108.4,401,110.3,390.8,112.7,381.8z M107.1,419.5l19.2,1c0,0,0,0,0,0
	c-0.1,10.1,0.5,18.6,1.7,27.3l-19.2,2.4c0,0-0.1-0.1-0.1-0.1c-1.6-10.8-2.1-21-1.7-30.8C107.1,419.4,107.1,419.5,107.1,419.5z
	 M129.1,454.5c0.9,5.3,1.9,10.2,3,14.8c1.2,5.1,2.5,9.8,3.8,14.3l-16.5,4.5c0-0.1,0-0.1-0.1-0.2c-4.3-10.5-7.3-20.8-9.3-30.8
	L129.1,454.5z M137.8,490.4c0.1,0,0.1,0,0.1-0.1c5.2,15.7,10.1,25.6,10.4,26.2c0,0.1,0.1,0.1,0.1,0.2c0.1,0.2,0.2,0.4,0.3,0.6
	l-15.3,5.2c-6.3-12-10-21.7-12-27.6L137.8,490.4z M151.7,523.8c0.2-0.1,0.5-0.2,0.7-0.3c5.1,8.7,10.8,17,17,25l-13.5,8.6
	c-0.1,0.1-0.2,0.1-0.3,0.2c-7.7-10.1-13.8-19.7-18.8-28.5L151.7,523.8z M173.5,554.3c0.1-0.1,0.2-0.2,0.3-0.3
	c5.4,6.5,11.2,12.8,17.4,18.8l-12.4,10.8c-7-7-13.3-14-18.8-20.8L173.5,554.3z M196.2,578c0.1-0.1,0.2-0.2,0.2-0.3
	c2.7,2.5,5.4,4.9,8.2,7.3c-4.5,3.3-9.1,6.6-13.9,9.8c-2.3-2-4.6-4.1-6.8-6.1L196.2,578z M188.1,311.1l-13.5-20.9c0,0,0-0.1-0.1-0.1
	c10.1-6.9,20.1-11.6,29.4-14.9l6.9,24.4c0,0.1,0.1,0.2,0.1,0.3C202.8,303.3,195.2,307,188.1,311.1
	C188.1,311.1,188.1,311.1,188.1,311.1z M251.3,269.5c10.8,1.1,21.3,3.9,31,8.2l-9.2,25.2c-9-4-18-6-26.1-6.7l4.2-26.4
	C251.3,269.7,251.3,269.6,251.3,269.5z M330.4,324.9l-20.9,12.6c-3.3-6-7-11.4-11.3-16.2c0,0,0.1-0.1,0.1-0.1l17.3-17.6
	C322.9,312.2,327.9,320.4,330.4,324.9z M325.7,408.8c-0.4-15.4-2.1-29.3-5.1-41.7c0,0,0.1,0,0.1,0l17.9-5.2L325.7,408.8z
	 M328.5,458.5l6.8,4.4c0.3,0.2,0.5,0.3,0.8,0.4c-0.4,1.2-0.8,2.4-1.2,3.6c-5,14.1-11,26.2-16.4,35.6L328.5,458.5z M338.3,456.3
	l-8.1-5.3l6.9-30.6l8.3,1c0,0,0,0,0,0C344,434.3,341.4,446,338.3,456.3z M345.8,382.2c1.1,11.2,1.1,22,0.3,32.2l-7.4-0.9
	L345.8,382.2z M340.8,353.9l-0.2,0.6c-0.6-0.2-1.3-0.2-1.9,0l-20,5.8c-1.7-5.8-3.7-11.3-6-16.4c0.1,0,0.2-0.1,0.3-0.2l20.5-12.3
	C336.5,339,338.9,346.5,340.8,353.9z M310.9,298.3c0,0-0.1,0.1-0.1,0.1l-17.5,17.8c0,0,0,0,0,0c-4.4-4.1-9-7.4-13.7-10.1
	c0.1-0.1,0.2-0.3,0.2-0.5l9-24.8C297.3,285.6,304.7,291.8,310.9,298.3z M244.2,269l-4.2,26.3c0,0.1,0,0.3,0,0.4c-0.7,0-1.5,0-2.2,0
	c-9,0-16.2,1.2-20.1,2c0,0,0-0.1,0-0.1l-7-24.6c0,0,0,0,0,0c11-3.1,21-4.1,29.7-4.1C241.7,269,243,269,244.2,269z M168.7,294.2
	l13.4,20.7c-8.2,5.3-15.4,11.3-21.8,17.8l-14.3-17c-0.1-0.1-0.2-0.2-0.4-0.3C153.4,306.9,161.1,300,168.7,294.2z M140.9,320.7
	l14.2,16.9c0.1,0.1,0.2,0.2,0.4,0.3c-4.6,5.3-8.6,10.9-12.1,16.9l-16-10.5c-0.1-0.1-0.3-0.1-0.4-0.2
	C133.9,330.1,140.2,321.6,140.9,320.7z M123.8,350.5l15.8,10.3c0.1,0.1,0.2,0.1,0.3,0.2c-1.8,3.5-3.4,7.1-4.8,10.8
	c-1.4,3.5-2.5,7.1-3.6,10.7l-16.9-7.7c0.5-1.5,0.9-3,1.4-4.4C118.4,363.2,121.1,356.5,123.8,350.5z M103.7,470.4
	c1.8,6.8,4.1,13.7,7,20.6c1.4,5.4,16.2,59.1,72.2,109C150.3,621.4,112,641.3,69,659.4L103.7,470.4z M159.4,637.9l-5.8-9.6
	c7.7-4.4,15.2-8.8,22.5-13.3l5.5,10.5C174.1,630,166.6,634.1,159.4,637.9z M128.5,652.7l-3.5-9c7.7-3.9,15.2-7.8,22.5-11.9
	c0,0,0,0.1,0.1,0.1l5.6,9.2C144.5,645.5,136.3,649.3,128.5,652.7z M96.2,665.1l-1.9-6.9c8.3-3.7,16.4-7.6,24.3-11.4l3.4,8.6
	C112.5,659.3,103.9,662.5,96.2,665.1z M67.1,670c7-2.9,13.9-5.8,20.7-8.8l1.7,6.2c-9.7,3.1-17.5,5.1-23.1,6.5L67.1,670z
	 M187.8,621.9l-5.6-10.6c2.6-1.7,5.2-3.3,7.7-5c3.3,2.7,6.5,5.4,10,8C195.8,616.9,191.8,619.4,187.8,621.9z M198,600.9
	c4.8-3.3,9.4-6.6,14-10c3.4,2.7,7,5.3,10.6,7.9c-4.7,3.4-9.5,6.8-14.3,10.1C204.8,606.3,201.3,603.6,198,600.9z M230.5,604.3
	c2.9,1.9,5.9,3.8,8.8,5.5c0,0.1-0.1,0.1-0.1,0.2l-7.4,14.4c-5.3-3.2-10.6-6.5-15.6-9.9C221,611.2,225.8,607.8,230.5,604.3z M238,628
	c0,0,0.1-0.1,0.1-0.1l4.7-9.2l0.6,12.3C241.6,630,239.8,629,238,628z M248.2,578.6l-5.1,2.6l-5.1-10.1c-0.1-0.3-0.3-0.5-0.5-0.7
	c4-3.5,7.9-7,11.5-10.4l6.7,12.1C253.3,574.4,250.8,576.5,248.2,578.6z M261.8,640.1c-0.9-0.4-1.7-0.8-2.6-1.2l-2.6-19.4
	c3.2,1.7,6.4,3.2,9.5,4.7L261.8,640.1z M268.7,615.3c-4.4-2.1-8.9-4.4-13.5-6.9l-2.8-21.3c11-9.1,21.7-18.8,32-28.9L268.7,615.3z
	 M288.6,633.9c2.6,1,5.2,2,7.7,2.9l-6,14.7c-1.8-0.6-3.5-1.2-5.3-1.9L288.6,633.9z M297.1,653.8l6-14.7c10,3.3,19,5.8,26.4,7.6
	l-6.7,14.5C314.1,659,305.5,656.5,297.1,653.8z M338.3,664.7c-2.8-0.6-5.6-1.2-8.4-1.8l6.7-14.6c1.9,0.4,3.6,0.8,5.2,1.1
	L338.3,664.7z M355.5,667.9c-1.4-0.2-2.7-0.5-4.1-0.7l3.4-16.2c0.4,0,0.8-0.1,1.2-0.1L355.5,667.9z M358.2,577.8l-14.3,62.6
	c-11-2.1-30.4-6.7-53.1-15.5l22-96.7c5.3-6.9,19.8-27.6,30.7-57.9c9.8-27.4,17.8-67,7.9-111.9l7.4-32.7c0.3,2.8,0.6,5.7,1,8.7
	c1.2,9.3,2.8,18.1,4.9,26.3L358.2,577.8z M373.1,385.7c5.7,13.1,13,24.1,21.6,32.9l-20.9,91.1L373.1,385.7z M374.7,669l-0.1-19.8
	c2.2-0.2,4.3-0.4,6.4-0.6l-5.3,20.4C375.3,669,375,669,374.7,669z M394.3,667.8c-4,0.5-7.8,0.8-11.2,1l5.4-20.9
	c3.7-0.4,7.2-0.9,10.6-1.3L394.3,667.8z M401.3,636.9c-8.2,1.2-17,2.2-26.7,3.2l-0.5-80l28.4-134.4c1.2,0.9,2.4,1.8,3.6,2.7
	c0.4,0.4,1.2,1.1,2.4,2l18.2,93.5L401.3,636.9z M425.6,662.3c-4.8,1.1-9.3,2.1-13.7,2.9l4-21.4c5.6-1.1,11-2.4,16.4-3.8L425.6,662.3
	z M435.3,629.4c-5.8,1.8-11.6,3.3-17.7,4.5l14.9-80.3l10,51.5L435.3,629.4z M441.5,658l6.3-23.1c0.2-0.1,0.3-0.1,0.5-0.2l3.9,19.9
	C448.5,655.9,445,657,441.5,658z M451.6,575l-13-53.6l15.5-83.5c0.5-0.1,1-0.3,1.6-0.4l13.6,78.6L451.6,575z M457.5,599.5l16-58.4
	l11.6,67c-4.9,2.6-9.8,5.1-14.9,7.5c-2.7,1.3-5.3,2.5-7.9,3.7L457.5,599.5z M469.4,648.5l-4.9-20.2c2-0.9,4.1-1.9,6.2-2.8L473,647
	C471.8,647.5,470.6,648,469.4,648.5z M479.9,644.2l-2.2-20.7c0-0.4-0.2-0.8-0.4-1.2c3.2-1.5,6.3-3.1,9.4-4.7l3.8,22
	C486.9,641.2,483.4,642.7,479.9,644.2z M480.7,514.7l31.2-114c2.4-2.4,4.8-4.9,7.2-7.5l3,193.2c-7.3,4.7-14.9,9.4-22.8,13.9
	L480.7,514.7z M501.4,609.6c0.8-0.5,1.6-0.9,2.5-1.4L510,630c-1.3,0.7-2.5,1.3-3.8,2L501.4,609.6z M512.3,658.4
	c-0.1,0-0.2,0.1-0.3,0.1l-3.7-17c4.8-2.4,9.6-4.9,14.5-7.6l0.4,22.8C519.6,657.3,516,657.9,512.3,658.4z M518.6,675.1l-0.7-8.3
	c1.8-0.3,3.6-0.6,5.4-0.9l0.1,8.7C521.6,674.8,520,675,518.6,675.1z M527.1,384.2c1-1.2,2.1-2.5,3.1-3.7
	c1.2-1.3,23.9-26.4,57.9-51.1c31.9-23.1,80.5-50.7,131.1-50.7c5.4,0,10.7,0.3,16,0.9c-6.4,48.1-26.6,101.6-60,159.1
	c-1.2,1.8-20,30-53.7,65.1c-20.4,21.3-49.1,47.9-84.7,72.7L527.1,384.2z M553.2,604.5l-7.5-23.2c7.9-5.6,15.5-11.3,22.7-17
	l10.3,22.4C570.1,593.1,561.6,599,553.2,604.5z M584.6,582.3l-10.4-22.6c9.4-7.6,18.1-15.2,26.1-22.5l11.2,22.5
	c0.1,0.3,0.3,0.5,0.5,0.7C602.7,568.3,593.5,575.6,584.6,582.3z M617.5,555.7l-11.8-23.6c8.3-7.8,15.9-15.3,22.5-22.2
	c1.4-1.5,2.8-2.9,4.1-4.3l14.6,22.4c0.1,0.2,0.3,0.4,0.4,0.5C637.2,538.2,627.3,547.3,617.5,555.7z M537.3,587.2
	c0.8-0.5,1.6-1.1,2.4-1.6l7.4,22.9c-2.8,1.8-5.6,3.6-8.4,5.3L537.3,587.2z M539.2,624.4c32.6-19.5,68.4-46,106.6-81.6l3.3,78.2
	c-30.6,13-66.5,24.3-108.5,32.5L539.2,624.4z M570.3,656.2v10.4c-5.1,1.2-11.2,2.3-16.2,3.2v-9.9
	C560.2,658.7,565.3,657.5,570.3,656.2z M577.4,654.4c7.1-1.7,13.2-3.4,19.3-5.3v9.9c0,0.4,0.1,0.8,0.2,1.2
	c-6.8,1.8-12.4,3.4-19.5,4.8V654.4z M604.2,647c8.6-2.7,17.3-5.5,25.6-8.5l-0.3,10.9c0,0.5-0.4,0.9-0.3,1.3
	c-8.6,2.9-17.3,5.4-25.4,7.6v-10.5C603.8,647.6,604.3,647.3,604.2,647z M541.6,672.1l-1-9.4c2.3-0.4,4.3-0.9,6.4-1.4v8.8
	c0,0.3,0.6,0.6,0.6,0.9C545.4,671.5,543.7,671.8,541.6,672.1z M636.7,648.3l0.5-11c0-0.5-0.1-1-0.2-1.4c4.2-1.6,8.4-3.3,12.6-5
	l0.5,12.5C645.6,645.2,641.2,646.8,636.7,648.3z M655.9,520.3c-1.1,1.1-2.2,2.2-3.4,3.3l-15.2-23.3c9.7-10.5,17.8-20.2,24.5-28.4
	l18.8,22.7c-14.2,16.5-24.3,25.4-24.5,25.5C656,520.1,655.9,520.2,655.9,520.3z M659.7,529.5c0.8-0.8,1.6-1.6,2.4-2.4
	c2.1-1.8,26.9-24.3,54.1-64.1c24.9-36.5,56.2-94.9,66.2-168.2c5,3,10.7,7,16.4,12.3l36.3,87.3c0.5,14.2-0.6,30.2-3.8,48.2
	c-0.6,2.4-11.8,44.7-55,91.8c-22.8,24.7-57.2,53.5-107.7,77.9L659.7,529.5z M765.2,574.9c0.1,0.5,0.4,0.9,0.7,1.2
	c-6,5.1-12,10-18.2,14.6l-4.1-12.3c-0.1-0.4-0.3-0.7-0.6-1c6.3-4.9,12.3-9.9,18.1-15.1L765.2,574.9z M689.5,626.2l-2-11.9
	c-0.1-0.4-0.2-0.7-0.4-1.1c8.9-4.7,17.5-9.6,25.7-14.8l1.3,12.7c0.1,0.5,0.2,1,0.5,1.5C706.2,617.6,697.8,622.1,689.5,626.2z
	 M719.7,596c-0.1-0.6-0.3-1.1-0.6-1.6c6.2-4.1,12.2-8.3,18.1-12.7l4.1,12.3c0.1,0.3,0.3,0.7,0.5,0.9c-6.9,4.9-13.8,9.5-20.8,13.8
	L719.7,596z M671.1,634.9l-1.4-12.8c3.7-1.8,7.4-3.6,11-5.4l2,11.8c0.1,0.3,0.2,0.7,0.3,1C678.9,631.3,675,633.1,671.1,634.9z
	 M771.5,570.1l-4.6-13.1c5-4.7,9.8-9.6,14.5-14.5l6.8,12.6C784.9,561.4,771.5,570.1,771.5,570.1z M847,461.4l-8.8-9.9
	c1.3-4.1,1.9-6.5,2-6.9c0-0.1,0-0.2,0-0.2c1.8-10,3-19.6,3.6-28.9l10.1,24.4C852,447.3,849.6,454.5,847,461.4z M850.3,386.2l6.4,1.3
	c0.2,0,0.5,0.1,0.7,0.1c0.1,0,0.3,0,0.4,0c0.6,5.9,0.8,11.5,0.8,16.7L850.3,386.2z"/>
</svg>
