<?xml version="1.0" encoding="utf-8"?>
<!-- Generator: Adobe Illustrator 16.0.0, SVG Export Plug-In . SVG Version: 6.00 Build 0)  -->
<!DOCTYPE svg PUBLIC "-//W3C//DTD SVG 1.1//EN" "http://www.w3.org/Graphics/SVG/1.1/DTD/svg11.dtd">
<svg version="1.1" xmlns="http://www.w3.org/2000/svg" xmlns:xlink="http://www.w3.org/1999/xlink" x="0px" y="0px"
	 width="255.12px" height="141.73px" viewBox="0 0 255.12 141.73" enable-background="new 0 0 255.12 141.73" xml:space="preserve">
<g id="Vrstva_1">
	<g>
		<path fill="#FEDB9C" d="M130.288,34.488c-20.496,0-37.224,16.123-38.198,36.377h76.395
			C167.511,50.611,150.783,34.488,130.288,34.488z"/>
		<g>
			<path fill="#83CFEE" d="M130.288,110.977c15.795,0,29.352-9.576,35.186-23.239H95.102
				C100.936,101.4,114.492,110.977,130.288,110.977z"/>
			<path fill="#64ACBC" d="M168.532,72.732c0-0.626-0.018-1.249-0.047-1.867H92.09c-0.03,0.619-0.047,1.241-0.047,1.867
				c0,0.045,0.003,0.09,0.003,0.135h76.483C168.529,72.822,168.532,72.777,168.532,72.732z"/>
			<path fill="#6FBACE" d="M92.459,78.367h75.656c0.26-1.755,0.398-3.548,0.41-5.372H92.05C92.062,74.819,92.2,76.612,92.459,78.367
				z"/>
			<path fill="#73CAEA" d="M168.525,72.995c0-0.043,0.003-0.085,0.004-0.128H92.046c0,0.043,0.003,0.085,0.003,0.128H168.525z"/>
			<path fill="#79C3DD" d="M92.459,78.367c0.484,3.277,1.382,6.419,2.642,9.37h70.372c1.26-2.951,2.158-6.093,2.642-9.37H92.459z"/>
		</g>
	</g>
</g>
<g id="Vrstva_2">
	<ellipse fill="#4FC1E5" cx="130.045" cy="101.588" rx="21.634" ry="4.079"/>
	<ellipse fill="#76C4E0" cx="130.046" cy="100.837" rx="19.5" ry="3"/>
	<polygon fill="#F8AB2D" points="120.166,97.867 119.473,97.024 118.385,97.117 118.973,96.197 118.547,95.191 119.604,95.466 
		120.43,94.75 120.495,95.841 121.43,96.404 120.414,96.804 	"/>
	<path fill="#DDBE6F" d="M130.046,90.921c-9.285,0-16.813,3.795-16.813,8.478c0,0.385,0.068,0.761,0.167,1.132
		c4.985,1.377,10.992,2.181,17.458,2.181c5.724,0,11.083-0.633,15.697-1.732c0.191-0.513,0.303-1.039,0.303-1.58
		C146.858,94.716,139.331,90.921,130.046,90.921z"/>
	
		<ellipse transform="matrix(0.986 0.1666 -0.1666 0.986 17.6594 -21.0143)" fill="#E5C888" cx="134.083" cy="94.75" rx="8.212" ry="2.704"/>
	<path fill="#DD7025" d="M141.001,96.224c0,0,0.875,0.281,1.219,0.781c0,0,0.625-0.031,0.75,0s0.063,0.494-0.188,0.528
		c0,0,0.688,0.659,0.688,0.972s-0.875-0.207-1.234-0.275s-0.141,0.928-0.359,0.914s-0.656-1.014-0.656-1.014
		s-0.375-0.031-0.734,0.125s-0.375-0.094-0.109-0.328s0.578-0.625,0.578-0.797S140.811,96.152,141.001,96.224z"/>
	<path fill="#F18333" d="M141.001,96.087c0,0,0.875,0.281,1.219,0.781c0,0,0.625-0.031,0.75,0s0.063,0.494-0.188,0.528
		c0,0,0.688,0.659,0.688,0.972s-0.875-0.207-1.234-0.275s-0.141,0.928-0.359,0.914s-0.656-1.014-0.656-1.014
		s-0.375-0.031-0.734,0.125s-0.375-0.094-0.109-0.328s0.578-0.625,0.578-0.797S140.811,96.016,141.001,96.087z"/>
	<path fill="#F28D4A" d="M141.063,96.219c0,0,0.828,0.349,1.016,0.661c0,0,0.109,0.109,0.234,0.109s0.516,0,0.516,0l-0.391,0.228
		c0,0,0.797,0.757,0.813,0.929s-1.047-0.498-1.156-0.601s-0.307,0.489-0.263,0.976s-0.269-0.375-0.284-0.703
		s-0.063-0.451-0.328-0.272s-0.531,0.29-0.156-0.328c0,0,0.406-0.149,0.219-0.446S140.928,96.157,141.063,96.219z"/>
</g>
<g id="Vrstva_3">
	<path opacity="0.5" fill="#6B5013" d="M113.347,100.299c1.472-4.139,6.053-5.927,6.053-5.927
		c1.462-2.378,14.589-1.535,14.589-1.535s-2.362,9.87-3.701,9.874l-12.22,6.271l-2.762-1.052l8.881-5.493l1.786-3.25
		c0,0-5.225,1.703-5.787,2.758s-10.128,3.248-10.128,3.248s-3.091-1.336-4.981-3.702L113.347,100.299z"/>
	<g>
		<path fill="#387D32" d="M138.143,70.844c0,0-0.209-1.171-1.59-0.66c0,0-0.316,0.25-0.503,0.454
			C136.05,70.638,136.719,71.525,138.143,70.844z"/>
		<path fill="#539E4C" d="M136.639,70.166c0,0-0.765-0.59-1.631,0.267l1.035,0.669L136.639,70.166z"/>
		<g>
			<path fill="#D89544" d="M126.79,92.136c0,0,3.752-15.576,8.913-21.206l1.102,0.508c-1.449,2.093-6.759,10.524-6.887,21.642
				C128.792,92.988,127.646,92.73,126.79,92.136z"/>
			<path fill="#E9A54B" d="M133.989,92.837c0,0-2,0.41-4.072,0.243c0.128-11.118,5.438-19.549,6.887-21.642l1.339,0.618
				C138.143,72.056,132.558,81.058,133.989,92.837z"/>
		</g>
		<g>
			<path fill="#539E4C" d="M136.492,70.844l10.342,8.394C145.065,78.897,137.567,77.086,136.492,70.844z"/>
			<path fill="#387D32" d="M147.211,79.305c0,0-0.139-0.021-0.377-0.066l-10.342-8.394c-0.013-0.07-0.027-0.135-0.038-0.204
				C136.454,70.64,144.1,70.538,147.211,79.305z"/>
		</g>
		<g>
			<path fill="#539E4C" d="M136.508,70.638l-2.771,11.214C133.352,80.338,132.006,73.785,136.508,70.638z"/>
			<path fill="#387D32" d="M133.821,82.173c0,0-0.034-0.117-0.085-0.321l2.771-11.214c0.05-0.035,0.096-0.072,0.146-0.105
				C136.653,70.532,139.554,76.495,133.821,82.173z"/>
		</g>
		<g>
			<path fill="#539E4C" d="M123.362,74.013l12.905-3.301C134.519,70.283,126.949,68.793,123.362,74.013z"/>
			<path fill="#387D32" d="M136.639,70.809c0,0-0.135-0.039-0.372-0.098l-12.905,3.301c-0.04,0.059-0.081,0.109-0.121,0.168
				C123.241,74.181,130.145,77.473,136.639,70.809z"/>
		</g>
	</g>
	<path fill="#F5E721" d="M161.069,70.865c0.096-0.494,0.149-1.002,0.149-1.524c0-4.399-3.566-7.966-7.966-7.966
		s-7.966,3.566-7.966,7.966c0,0.522,0.054,1.031,0.149,1.524H161.069z"/>
	<g>
		<g>
			<path fill="#E9A54B" d="M128.992,93.438c0,0-5-20.75-11.875-28.25l-1.466,0.677c1.929,2.788,9.004,14.021,9.174,28.831
				C126.324,94.575,127.85,94.23,128.992,93.438z"/>
			<path fill="#D89544" d="M119.4,94.372c0,0,2.666,0.548,5.426,0.324c-0.17-14.811-7.245-26.043-9.174-28.831l-1.784,0.823
				C113.868,66.688,121.307,78.681,119.4,94.372z"/>
		</g>
		<path fill="#387D32" d="M113.868,65.074c0,0,0.278-1.559,2.118-0.879c0,0,0.421,0.334,0.669,0.604
			C116.655,64.799,115.764,65.981,113.868,65.074z"/>
		<path fill="#539E4C" d="M115.872,64.169c0,0,1.019-0.784,2.172,0.356l-1.38,0.891L115.872,64.169z"/>
		<g>
			<path fill="#539E4C" d="M116.066,65.074l-13.778,11.184C104.644,75.803,114.633,73.389,116.066,65.074z"/>
			<path fill="#387D32" d="M101.786,76.346c0,0,0.185-0.027,0.502-0.088l13.778-11.184c0.016-0.093,0.038-0.179,0.052-0.272
				C116.118,64.801,105.932,64.666,101.786,76.346z"/>
		</g>
		<g>
			<path fill="#539E4C" d="M116.045,64.799l3.694,14.939C120.25,77.721,122.042,68.992,116.045,64.799z"/>
			<path fill="#387D32" d="M119.623,80.166c0,0,0.046-0.156,0.116-0.428l-3.694-14.939c-0.066-0.046-0.126-0.096-0.194-0.141
				C115.851,64.658,111.986,72.602,119.623,80.166z"/>
		</g>
		<g>
			<path fill="#539E4C" d="M133.559,69.295l-17.194-4.397C118.695,64.326,128.778,62.341,133.559,69.295z"/>
			<path fill="#387D32" d="M115.872,65.027c0,0,0.179-0.052,0.493-0.13l17.194,4.397c0.053,0.078,0.107,0.146,0.16,0.225
				C133.719,69.52,124.522,73.904,115.872,65.027z"/>
		</g>
	</g>
</g>
<g id="Vrstva_5">
	<g>
		<rect x="95.11" y="71.332" fill="#DAEEF2" width="4.904" height="1.167"/>
		<rect x="95.627" y="70.032" fill="#080505" width="0.635" height="1.433"/>
		<rect x="96.602" y="70.032" fill="#080505" width="0.635" height="1.433"/>
		<rect x="97.577" y="70.032" fill="#080505" width="0.635" height="1.433"/>
		<rect x="98.552" y="70.032" fill="#080505" width="0.635" height="1.433"/>
		<polygon fill="#B71918" points="102.11,74.08 93.941,74.08 93.364,72.248 102.746,72.189 		"/>
	</g>
	<path fill="#CEB6D9" d="M99.208,69.172c0-0.12-0.098-0.217-0.217-0.217c-0.092,0-0.169,0.057-0.201,0.137
		c-0.027-0.019-0.058-0.032-0.092-0.032c-0.091,0-0.165,0.074-0.165,0.165c0,0.042,0.017,0.079,0.043,0.108
		c-0.026,0.029-0.043,0.066-0.043,0.108c0,0.091,0.074,0.165,0.165,0.165c0.008,0,0.014-0.003,0.022-0.004
		c-0.008,0.018-0.022,0.033-0.022,0.053c0,0.075,0.061,0.135,0.135,0.135c0.074,0,0.135-0.061,0.135-0.135
		c0-0.02-0.014-0.034-0.021-0.051c0.086-0.005,0.156-0.075,0.156-0.163c0-0.027-0.008-0.052-0.02-0.075
		C99.156,69.333,99.208,69.259,99.208,69.172z M98.83,69.316c0,0,0,0.001,0.001,0.002c-0.002,0.001-0.004,0.002-0.005,0.003
		C98.828,69.32,98.829,69.318,98.83,69.316z"/>
	<path fill="#CEB6D9" d="M98.232,69.172c0-0.12-0.098-0.217-0.217-0.217c-0.092,0-0.169,0.057-0.201,0.137
		c-0.027-0.019-0.058-0.032-0.092-0.032c-0.091,0-0.165,0.074-0.165,0.165c0,0.042,0.017,0.079,0.043,0.108
		c-0.026,0.029-0.043,0.066-0.043,0.108c0,0.091,0.074,0.165,0.165,0.165c0.008,0,0.014-0.003,0.022-0.004
		c-0.008,0.018-0.022,0.033-0.022,0.053c0,0.075,0.061,0.135,0.135,0.135c0.074,0,0.135-0.061,0.135-0.135
		c0-0.02-0.014-0.034-0.021-0.051c0.086-0.005,0.156-0.075,0.156-0.163c0-0.027-0.008-0.052-0.02-0.075
		C98.181,69.333,98.232,69.259,98.232,69.172z M97.855,69.316c0,0,0,0.001,0.001,0.002c-0.002,0.001-0.004,0.002-0.005,0.003
		C97.853,69.32,97.854,69.318,97.855,69.316z"/>
	<path fill="#CEB6D9" d="M97.257,69.172c0-0.12-0.098-0.217-0.217-0.217c-0.092,0-0.169,0.057-0.201,0.137
		c-0.027-0.019-0.058-0.032-0.092-0.032c-0.091,0-0.165,0.074-0.165,0.165c0,0.042,0.017,0.079,0.043,0.108
		c-0.026,0.029-0.043,0.066-0.043,0.108c0,0.091,0.074,0.165,0.165,0.165c0.008,0,0.014-0.003,0.022-0.004
		c-0.008,0.018-0.022,0.033-0.022,0.053c0,0.075,0.061,0.135,0.135,0.135c0.074,0,0.135-0.061,0.135-0.135
		c0-0.02-0.014-0.034-0.021-0.051c0.086-0.005,0.156-0.075,0.156-0.163c0-0.027-0.008-0.052-0.02-0.075
		C97.206,69.333,97.257,69.259,97.257,69.172z M96.88,69.316c0,0,0,0.001,0.001,0.002c-0.002,0.001-0.004,0.002-0.005,0.003
		C96.877,69.32,96.878,69.318,96.88,69.316z"/>
	<path fill="#CEB6D9" d="M96.282,69.172c0-0.12-0.098-0.217-0.217-0.217c-0.092,0-0.169,0.057-0.201,0.137
		c-0.027-0.019-0.058-0.032-0.092-0.032c-0.091,0-0.165,0.074-0.165,0.165c0,0.042,0.017,0.079,0.043,0.108
		c-0.026,0.029-0.043,0.066-0.043,0.108c0,0.091,0.074,0.165,0.165,0.165c0.008,0,0.014-0.003,0.022-0.004
		c-0.008,0.018-0.022,0.033-0.022,0.053c0,0.075,0.061,0.135,0.135,0.135c0.074,0,0.135-0.061,0.135-0.135
		c0-0.02-0.014-0.034-0.021-0.051c0.086-0.005,0.156-0.075,0.156-0.163c0-0.027-0.008-0.052-0.02-0.075
		C96.23,69.333,96.282,69.259,96.282,69.172z M95.905,69.316c0,0,0,0.001,0.001,0.002c-0.002,0.001-0.004,0.002-0.005,0.003
		C95.902,69.32,95.903,69.318,95.905,69.316z"/>
	<path fill="#FFFFFF" d="M126.752,51.438c-0.092-0.542-0.543-0.963-1.111-0.963c-0.275,0-0.518,0.11-0.716,0.271
		c-0.036-0.986-0.842-1.777-1.838-1.777c-0.857,0-1.571,0.588-1.778,1.38c-0.241-0.43-0.695-0.724-1.223-0.724
		c-0.149,0-0.29,0.029-0.425,0.072c-0.336-1.123-1.365-1.947-2.598-1.947c-1.228,0-2.253,0.818-2.594,1.934
		c-0.352-0.736-1.029-1.285-1.852-1.446c-0.311-0.969-1.208-1.676-2.281-1.676c-1.254,0-2.272,0.963-2.384,2.188
		c-0.224-0.075-0.46-0.125-0.709-0.125c-1.243,0-2.25,1.007-2.25,2.25c0,0.196,0.035,0.382,0.084,0.563H126.752z"/>
	<path fill="#FFFFFF" d="M139.562,54.177c0.006-0.019,0.018-0.035,0.022-0.055c0.044,0.022,0.091,0.037,0.137,0.055h8.08
		c-0.04-0.477-0.429-0.855-0.916-0.855c-0.104,0-0.198,0.028-0.292,0.059c-0.025-0.495-0.427-0.891-0.928-0.891
		c-0.159,0-0.302,0.05-0.433,0.12c-0.145-0.146-0.326-0.243-0.525-0.309c0.004-0.035,0.021-0.065,0.021-0.101
		c0-0.564-0.458-1.022-1.022-1.022s-1.022,0.458-1.022,1.022c0,0.119,0.03,0.229,0.067,0.335c-0.019,0.021-0.029,0.048-0.047,0.07
		c-0.271-0.334-0.681-0.553-1.146-0.553c-0.302,0-0.581,0.091-0.814,0.246c-0.187-0.146-0.41-0.246-0.665-0.246
		c-0.568,0-1.021,0.438-1.078,0.991c-0.097-0.034-0.197-0.062-0.306-0.062c-0.515,0-0.932,0.417-0.932,0.932
		c0,0.094,0.027,0.179,0.053,0.264H139.562z"/>
</g>
<g id="Vrstva_6">
	<g>
		<polygon fill="#F07F2B" points="76.898,69.617 92.092,69.617 92.092,57.573 76.898,57.573 81.207,63.476 		"/>
		<polygon fill="#F07F2B" points="183.782,57.453 168.589,57.453 168.589,69.497 183.782,69.497 179.476,63.594 		"/>
		<polygon fill="#D3671E" points="92.092,69.617 85.422,66.281 85.422,55.538 92.092,58.874 		"/>
		<polygon fill="#D3671E" points="168.589,69.617 175.261,66.281 175.261,55.538 168.589,58.874 		"/>
		<path fill="#F07F2B" d="M85.422,55.538c0,0,49.044-10.001,89.839,0v10.743c0,0-55.56-9.08-89.839,0V55.538z"/>
	</g>
	<g>
		<g>
			<path fill="#FFFFFB" d="M105.688,61.11c0.021,0.032-0.115,0.182-0.158,0.221c-0.077,0.071-0.158,0.273-0.255,0.381
				s-0.148,0.244-0.185,0.346c-0.008,0.023-0.022,0.046-0.024,0.062c-0.002,0.017-0.01,0.026-0.026,0.028
				c-0.04,0.004-0.096-0.002-0.167-0.023c-0.071-0.02-0.144-0.046-0.22-0.078c-0.322-0.132-0.63-0.313-0.918-0.548
				c-0.288-0.236-0.544-0.506-0.769-0.813c-0.226-0.307-0.416-0.642-0.568-1.005s-0.253-0.745-0.303-1.141
				c-0.057-0.453-0.039-0.926,0.056-1.421c0.095-0.496,0.232-1.076,0.461-1.618c0.056-0.133,0.152-0.309,0.261-0.516
				s0.27-0.439,0.482-0.698c0.132,0.052,0.197,0.079,0.328,0.131c0.185,0.075,0.375,0.182,0.571,0.32
				c0.195,0.139,0.533,0.339,0.628,0.52c0.119,0.224,0.102,0.686,0.13,0.944c0.029,0.259,0.111,0.523,0.093,0.601
				c-0.006,0.025-0.063,0.056-0.104,0.061c-0.054,0.006-0.081,0.01-0.135,0.017c-0.042,0.005-0.076,0.02-0.106,0.047
				c-0.033-0.03-0.05-0.045-0.083-0.075c-0.046-0.325-0.082-0.583-0.107-0.772s-0.094-0.375-0.099-0.375
				c-0.087-0.002-0.527,0.745-0.625,1.027c-0.123,0.352-0.156,0.741-0.156,1.051c0,0.31,0.017,0.605,0.05,0.883
				c0.048,0.405,0.185,0.789,0.407,1.154c0.223,0.364,0.537,0.709,0.937,1.008c0.121,0.09,0.246,0.157,0.364,0.2
				S105.682,61.1,105.688,61.11z M102.887,57.341c-0.073,0.348-0.104,0.573-0.091,0.676c0.003,0.024,0.007,0.046,0.014,0.07
				c0.007,0.023,0.017,0.07,0.029,0.081c0.021,0.017,0.09,0.034,0.12,0.075c0.03,0.041,0.084,0.178,0.084,0.178
				s-0.001-0.03,0.002-0.042c0.002-0.013,0.002-0.026,0-0.042c-0.003-0.024-0.038-0.078-0.037-0.104
				c0.005-0.08,0.114-0.285,0.092-0.46c-0.018-0.143-0.074-0.305-0.17-0.486C102.914,57.309,102.904,57.32,102.887,57.341z
				 M103.545,60.319c0.012-0.009-0.183-0.421-0.367-0.584c0.03,0.088,0.047,0.132,0.077,0.221
				C103.307,60.103,103.545,60.319,103.545,60.319z M102.993,56.687c-0.017,0.139-0.025,0.25-0.027,0.335
				c-0.002,0.085-0.022,0.191-0.022,0.191c0.001,0,0.129-0.259,0.162-0.359c0.033-0.101,0.045-0.194,0.034-0.282
				c-0.001-0.009-0.002-0.014-0.003-0.023C103.08,56.604,103.051,56.631,102.993,56.687z M105.007,61.222
				c-0.021-0.038-0.038-0.074-0.05-0.109s-0.021-0.064-0.023-0.088c-0.004-0.032,0.039-0.09,0.039-0.09
				c-0.004-0.01-0.333-0.038-0.35-0.189c-0.003-0.031,0.005-0.067,0.003-0.072c-0.015-0.04-0.173-0.117-0.179-0.172
				c-0.001-0.014-0.003-0.022-0.005-0.037c-0.041-0.076-0.065-0.135-0.07-0.178s-0.03-0.063-0.078-0.057c-0.005,0-0.008,0-0.013,0
				c0.026,0.085,0.061,0.168,0.103,0.248c0.042,0.08,0.141,0.21,0.137,0.231c-0.002,0.011-0.049,0.03-0.057,0.031
				c-0.032,0.004-0.059-0.01-0.08-0.044c-0.021-0.033-0.075-0.082-0.101-0.128c-0.042-0.076-0.072-0.208-0.131-0.298
				c-0.06-0.09-0.086-0.281-0.109-0.302c-0.02-0.018-0.174-0.044-0.182-0.087c-0.006-0.03,0.013-0.084,0.01-0.108
				c-0.01-0.087-0.058-0.167-0.144-0.238c-0.086-0.07-0.137-0.161-0.15-0.272c-0.002-0.019-0.003-0.029-0.006-0.048
				c0.013-0.034,0.019-0.063,0.016-0.086c-0.004-0.032-0.014-0.061-0.029-0.087c-0.016-0.026-0.024-0.05-0.027-0.074
				c-0.005-0.04,0.055-0.087,0.06-0.104c0.006-0.02-0.041-0.101-0.053-0.14c-0.019,0.012-0.028,0.017-0.047,0.029
				c-0.056,0.007-0.092-0.024-0.108-0.095c-0.001-0.009-0.002-0.014-0.003-0.023c-0.004-0.032,0.003-0.048,0.019-0.05
				c0.008-0.001,0.021,0.003,0.038,0.013c0.017,0.01,0.04,0.013,0.064,0.01c0.008-0.001,0.026-0.011,0.057-0.031
				c-0.003-0.024-0.004-0.035-0.007-0.059c-0.007-0.055-0.026-0.107-0.056-0.152c-0.043,0.054-0.064,0.081-0.107,0.134
				c-0.005,0-0.007,0.001-0.012,0.002c-0.032,0.004-0.053-0.035-0.063-0.115c-0.005-0.04-0.005-0.086-0.004-0.143
				c0.001-0.056,0.008-0.125,0.023-0.207c-0.013-0.027-0.02-0.043-0.033-0.07c0.075-0.058,0.134-0.145,0.178-0.263
				c-0.033,0.019-0.048,0.028-0.081,0.046c-0.02-0.03-0.033-0.073-0.04-0.128c-0.005-0.04-0.006-0.074-0.005-0.103
				c0-0.029-0.001-0.058-0.005-0.09c-0.001-0.014-0.004-0.022-0.005-0.036c0.016-0.075,0.058-0.115,0.123-0.123
				c0.01-0.001,0.015-0.002,0.024-0.003c0.024-0.011,0.039-0.034,0.047-0.072c0.008-0.037,0.029-0.096,0.037-0.156
				c0.007-0.056,0.03-0.202,0.088-0.414s0.327-0.639,0.321-0.867c-0.001-0.074-0.115-0.167-0.181-0.159
				c-0.024,0.003-0.067,0.042-0.067,0.068c0,0.029,0.032,0.076,0.034,0.092c0.006,0.056-0.002,0.109-0.03,0.161
				c-0.027,0.051-0.058,0.101-0.093,0.149c-0.036,0.049-0.071,0.102-0.101,0.157c-0.031,0.056-0.031,0.158-0.046,0.181
				c-0.007,0.01-0.052,0.021-0.084,0.028c-0.032,0.008-0.087,0.013-0.108,0.03c-0.109,0.088-0.154,0.383-0.131,0.573
				c0.004,0.038,0.008,0.056,0.013,0.094c0.024-0.003,0.036-0.005,0.061-0.008c0.008-0.073,0.042-0.125,0.104-0.156
				c0.017,0.012,0.025,0.019,0.042,0.031c-0.028,0.117-0.07,0.211-0.128,0.282c-0.01-0.004-0.014-0.007-0.024-0.011
				c-0.041,0.07-0.063,0.144-0.066,0.221c-0.003,0.077-0.005,0.156-0.004,0.237s0.003,0.16,0.004,0.24
				c0.001,0.081-0.049,0.199-0.043,0.247c0.002,0.02,0.031,0.058,0.034,0.082s0.001,0.045-0.005,0.061
				c-0.011,0.025-0.025,0.042-0.037,0.052s-0.018,0.022-0.016,0.039s0.016,0.021,0.041,0.019c0.034-0.004,0.05-0.004,0.084-0.008
				c0.026,0.013,0.041,0.026,0.042,0.042c0.003,0.024-0.022,0.063-0.025,0.087c-0.006,0.053,0.059,0.157,0.099,0.212
				c0.04,0.056,0.064,0.116,0.072,0.18c0.003,0.024-0.008,0.083-0.015,0.086c-0.012,0.005-0.074-0.047-0.09-0.082
				c-0.017-0.034-0.032-0.069-0.045-0.107c-0.013-0.039-0.025-0.078-0.038-0.116s-0.037-0.076-0.075-0.112
				c0.004,0.033,0.006,0.051,0.01,0.084c0.015,0.119,0.135,0.365,0.116,0.444c-0.004,0.018-0.042,0.054-0.04,0.078
				s0.02,0.05,0.052,0.078c0.032,0.028,0.084,0.136,0.084,0.136c0.003,0,0.019-0.039,0.016-0.063s-0.009-0.044-0.019-0.06
				c0.024-0.042,0.036-0.062,0.061-0.103c0.054,0.042,0.086,0.087,0.092,0.135c0.003,0.024-0.006,0.049-0.006,0.061
				c0.001,0.101,0.119,0.271,0.181,0.376c0.062,0.105,0.104,0.217,0.135,0.324c0.088,0.307,0.563,0.827,0.558,0.887
				c-0.001,0.008-0.068,0.034-0.116,0.04c-0.041,0.005-0.069-0.007-0.088-0.033s-0.04-0.059-0.061-0.101s-0.049-0.085-0.083-0.129
				c-0.034-0.044-0.083-0.083-0.144-0.116c0.003,0.029,0.007,0.043,0.01,0.072c0.041,0.067,0.074,0.121,0.099,0.162
				c0.025,0.042,0.039,0.078,0.043,0.11c0.002,0.016-0.007,0.031-0.009,0.037c-0.004,0.015,0.017,0.037,0.042,0.038
				c0.024,0.002,0.104-0.002,0.124,0.015c0.034,0.03,0.092,0.174,0.193,0.238c0.101,0.065,0.409,0.212,0.409,0.212
				c0.012-0.009-0.065-0.206-0.156-0.285c-0.09-0.078-0.23-0.298-0.23-0.298c0.002-0.003,0.104,0.044,0.133,0.057
				s0.042,0.046,0.052,0.066c0.02,0.043,0.082,0.097,0.107,0.139s0.07,0.076,0.113,0.078c0.034,0.001,0.065-0.021,0.074-0.05
				s0.033-0.047,0.073-0.051C104.992,61.224,104.997,61.223,105.007,61.222z M104.162,60.052c0.001,0-0.066-0.143-0.125-0.221
				s-0.126-0.168-0.204-0.272c0.001,0.009,0.002,0.015,0.003,0.024c0.008,0.063,0.042,0.132,0.104,0.205
				C104.002,59.862,104.162,60.052,104.162,60.052z M104.042,54.895c-0.003-0.023-0.054-0.054-0.07-0.052s-0.028,0.024-0.036,0.064
				c-0.007,0.042-0.04,0.065-0.098,0.072c-0.005,0-0.008,0-0.013,0c-0.073,0.162-0.151,0.311-0.235,0.446
				c-0.083,0.135-0.136,0.421-0.136,0.421c0.007,0.004,0.102-0.089,0.124-0.148c0.022-0.059,0.045-0.119,0.066-0.182
				c0.022-0.063,0.05-0.122,0.085-0.174s0.135-0.083,0.174-0.116c0.028-0.023,0.051-0.102,0.07-0.152
				C103.993,55.022,104.047,54.929,104.042,54.895z M104.158,55.28c-0.024-0.013-0.121,0.041-0.138,0.088
				c-0.015,0.041-0.016,0.079-0.015,0.086c0.008,0.071,0.086,0.196,0.086,0.196c0.01-0.001,0.047-0.125,0.066-0.171
				s0.028-0.09,0.023-0.129C104.178,55.327,104.167,55.285,104.158,55.28z"/>
			<path fill="#FFFFFB" d="M112.101,54.089c0.346,0.358,0.597,1.085,0.792,1.676s0.31,1.125,0.347,1.604
				c0.011,0.144,0.017,0.307,0.015,0.487c-0.002,0.181-0.002,0.385-0.015,0.597c-0.021,0.355-0.079,0.688-0.149,0.975
				c-0.071,0.286-0.166,0.548-0.284,0.787c-0.119,0.238-0.271,0.46-0.455,0.669c-0.184,0.208-0.521,0.587-0.663,0.598
				c-0.089,0.006-0.335-0.206-0.501-0.348c-0.166-0.143-0.324-0.296-0.473-0.464c-0.148-0.167-0.287-0.343-0.413-0.528
				s-0.234-0.367-0.324-0.544c-0.114-0.235-0.171-0.352-0.286-0.587c-0.121-0.254-0.196-0.525-0.223-0.812
				c-0.008-0.087-0.012-0.179-0.012-0.275c-0.001-0.096-0.007-0.196-0.017-0.3c-0.004-0.04-0.01-0.078-0.018-0.118
				s-0.014-0.083-0.018-0.131c-0.014-0.144-0.006-0.342,0.024-0.594c0.03-0.251,0.046-0.606,0.129-0.939
				c0.151-0.604,0.353-0.973,0.369-0.974c0.001,0.01,0.003,0.014,0.004,0.024c0.116-0.275,0.25-0.533,0.403-0.772
				c0.153-0.238,0.411-0.609,0.544-0.637C111.099,53.434,111.84,53.819,112.101,54.089z M110.111,57.981
				c-0.023-0.07-0.092-0.139-0.11-0.134c-0.023,0.007-0.052,0.113-0.045,0.185c0.002,0.024,0.003,0.036,0.005,0.06
				c0.057-0.005,0.101-0.018,0.131-0.037C110.1,58.026,110.104,58.011,110.111,57.981z M110.659,56.969
				c0.001,0.019,0.002,0.029,0.004,0.048c0.006,0.072-0.027,0.112-0.101,0.118c-0.073,0.006-0.165-0.062-0.171-0.13
				c-0.007-0.085,0.052-0.253,0.064-0.391c0.013-0.137,0.042-0.433,0.036-0.438c-0.004-0.003-0.064,0.04-0.098,0.087
				s-0.063,0.104-0.09,0.171c-0.027,0.067-0.047,0.136-0.061,0.21c-0.014,0.073-0.018,0.138-0.013,0.194
				c0.007,0.08,0.023,0.146,0.048,0.2c0.025,0.054,0.04,0.101,0.043,0.141c0.002,0.024,0,0.044-0.007,0.061
				c-0.014,0.006-0.022,0.009-0.036,0.016c-0.002-0.019-0.002-0.029-0.004-0.048c-0.009-0.047-0.013-0.071-0.022-0.119
				c-0.033,0.091-0.063,0.176-0.088,0.255c-0.026,0.079-0.035,0.17-0.025,0.274c0.004,0.048,0.012,0.083,0.022,0.105
				c0.01-0.001,0.015,0,0.024-0.001c0.029-0.118,0.043-0.179,0.072-0.297c0.022-0.026,0.041-0.04,0.058-0.041
				c0.024-0.002,0.045,0.001,0.051,0.008c0.023,0.03,0.052,0.069,0.097,0.07c0.045,0,0.087,0.057,0.076,0.094
				c-0.008,0.027-0.047,0.055-0.055,0.056c-0.017,0.001-0.039-0.011-0.065-0.032c-0.002,0.034-0.003,0.052-0.005,0.086
				c0.054,0.052,0.192,0.115,0.219,0.1c0.006-0.003,0.009-0.028,0.013-0.037c0.003-0.008,0.005-0.021,0.003-0.038
				c-0.017-0.191-0.02-0.287-0.012-0.288c0,0.005,0,0.007,0,0.012c-0.029-0.045-0.043-0.084-0.046-0.116
				c-0.003-0.04,0.012-0.075,0.046-0.106c0.034-0.031,0.085-0.085,0.115-0.149c0.039-0.083,0.046-0.177,0.041-0.233
				c-0.003-0.04-0.011-0.067-0.02-0.082C110.728,56.825,110.705,56.873,110.659,56.969z M110.6,57.949
				c-0.003-0.026-0.11-0.074-0.167-0.069c-0.105,0.009-0.152,0.067-0.143,0.17c0.003,0.032,0.007,0.065,0.015,0.101
				c0.007,0.036,0.011,0.109,0.016,0.112c0.006,0.004,0.046-0.023,0.045-0.039c-0.003-0.034-0.004-0.051-0.007-0.084
				c-0.002-0.024,0.02-0.073,0.031-0.075c0.032-0.006,0.117,0.073,0.119,0.097s-0.023,0.046-0.074,0.067
				c-0.052,0.021-0.075,0.051-0.072,0.091s0.054,0.093,0.06,0.116c0.005,0.021-0.025,0.074-0.04,0.1
				c-0.014,0.025-0.021,0.046-0.02,0.062c0.001,0.008,0.037,0.033,0.064,0.03c0.077-0.008,0.159-0.135,0.15-0.23
				c-0.003-0.04-0.01-0.078-0.021-0.113c-0.011-0.035-0.019-0.067-0.021-0.099C110.528,58.106,110.603,57.978,110.6,57.949z
				 M110.965,59.868c0.042-0.076,0.062-0.141,0.057-0.197c-0.005-0.063-0.081-0.16-0.172-0.285c-0.01-0.013-0.016-0.043-0.02-0.083
				c-0.004-0.048,0.001-0.088,0.014-0.122c0.014-0.033,0.017-0.061,0.015-0.085c-0.003-0.04-0.043-0.068-0.105-0.088
				c-0.065-0.021-0.135-0.145-0.135-0.145c-0.006,0-0.057,0.182-0.049,0.27c0.006,0.063,0.021,0.141,0.052,0.176
				c0.038,0.042,0.102,0.094,0.123,0.153c0.021,0.058,0.041,0.119,0.055,0.182c0.014,0.063,0.033,0.123,0.059,0.182
				c0.025,0.058,0.075,0.102,0.151,0.136C110.992,59.924,110.982,59.905,110.965,59.868z M111.05,54.611
				c-0.029-0.054-0.071-0.08-0.12-0.076c-0.066,0.006-0.153,0.09-0.263,0.252c-0.11,0.162-0.412,0.698-0.412,0.698
				c0.002,0.002,0.136-0.077,0.196-0.094c0.061-0.017,0.097-0.055,0.109-0.112C110.755,55.012,110.854,54.878,111.05,54.611z
				 M110.953,58.617c-0.011-0.127-0.278-0.638-0.278-0.638c-0.004,0.001-0.01,0.142-0.007,0.182
				c0.008,0.087,0.035,0.181,0.085,0.281c0.012,0.081,0.019,0.122,0.03,0.203c0.087,0.153,0.155,0.236,0.205,0.248
				C110.974,58.783,110.968,58.727,110.953,58.617z M111.592,54.107c-0.217,0.291-0.467,0.713-0.75,1.268
				c-0.015,0.001-0.021,0.001-0.036,0.002c-0.018-0.032-0.028-0.047-0.046-0.079c-0.047,0.028-0.07,0.062-0.071,0.102
				s-0.025,0.105-0.02,0.122c0.004,0.015,0.042,0.045,0.044,0.069c0.007,0.08-0.075,0.117-0.101,0.14
				c-0.016,0.014-0.021,0.076-0.022,0.104c-0.002,0.029,0,0.059,0.002,0.091c0.003,0.04,0.079,0.197,0.079,0.197
				c0.002,0,0.015-0.155,0.036-0.245c0.021-0.09,0.02-0.229,0.053-0.306c0.106-0.252,0.347-0.443,0.347-0.452
				c-0.005,0-0.008,0.002-0.013,0.002c0.17-0.231,0.424-0.452,0.495-0.596c0.033-0.067,0.02-0.212,0.011-0.324
				C111.596,54.166,111.595,54.146,111.592,54.107z M111.058,56.007c0.011-0.028,0.01-0.078,0.015-0.11
				c0.005-0.032,0.007-0.061,0.005-0.085c-0.003-0.04-0.033-0.092-0.045-0.092c-0.064-0.002-0.357,0.731-0.329,0.763
				c0.012,0.013,0.149-0.059,0.178-0.154C110.911,56.233,111.018,56.11,111.058,56.007z M111.248,59.482
				c0.003-0.001,0.009-0.037,0.007-0.06c-0.003-0.04-0.024-0.078-0.06-0.115c-0.036-0.037-0.144-0.133-0.144-0.133
				C111.047,59.178,111.237,59.486,111.248,59.482z M111.646,60.569c0.005-0.033,0.007-0.077,0.002-0.132
				c-0.008-0.095-0.042-0.19-0.099-0.281c-0.143-0.084-0.214-0.126-0.357-0.21c0.076,0.13,0.151,0.259,0.227,0.385
				s0.151,0.249,0.227,0.371c0.071,0.032,0.104,0.049,0.175,0.081c0.004-0.04,0.009-0.083,0.009-0.127
				c0.001-0.043,0-0.083-0.004-0.125c-0.002-0.023-0.007-0.051-0.014-0.078c-0.006-0.028-0.01-0.053-0.012-0.076
				C111.738,60.453,111.707,60.492,111.646,60.569z M112.125,60.216c0.068-0.005,0.303-0.582,0.405-1.075
				c0.102-0.494,0.127-1.071,0.074-1.733c-0.037-0.455-0.109-0.899-0.218-1.332c-0.109-0.433-0.557-1.359-0.595-1.361
				c-0.032-0.002-0.192,0.31-0.243,0.491c-0.051,0.181-0.179,0.37-0.254,0.527c-0.296,0.62-0.313,1.523-0.252,2.225
				c0.014,0.16,0.036,0.315,0.065,0.465c0.029,0.15,0.063,0.308,0.122,0.423c0.118,0.233,0.291,0.485,0.417,0.724
				S112.078,60.219,112.125,60.216z M111.491,59.907c0.02,0.008,0.031,0.012,0.051,0.02c0.016-0.001,0.023-0.01,0.021-0.026
				c-0.003-0.04-0.128-0.219-0.128-0.219c-0.003,0.001-0.021,0.069-0.048,0.083c-0.027,0.015-0.041,0.03-0.039,0.046
				c0.01,0.009,0.017,0.013,0.027,0.022C111.422,59.863,111.445,59.877,111.491,59.907z M111.379,54.244
				c-0.011-0.031-0.064-0.104-0.157-0.216c-0.056,0.101-0.084,0.153-0.141,0.254c0.032-0.011,0.083-0.021,0.148-0.026
				C111.29,54.251,111.32,54.249,111.379,54.244z"/>
			<path fill="#FFFFFB" d="M120.913,59.919c0.019,0.033-0.126,0.173-0.172,0.21c-0.082,0.065-0.177,0.262-0.28,0.362
				s-0.162,0.234-0.206,0.334c-0.01,0.022-0.025,0.045-0.028,0.061c-0.003,0.017-0.012,0.025-0.028,0.026
				c-0.04,0.002-0.095-0.009-0.165-0.034c-0.07-0.025-0.141-0.056-0.215-0.092c-0.312-0.153-0.606-0.355-0.877-0.608
				c-0.271-0.254-0.51-0.542-0.713-0.863c-0.204-0.321-0.37-0.669-0.498-1.042s-0.204-0.758-0.228-1.158
				c-0.027-0.455,0.022-0.927,0.15-1.415c0.128-0.489,0.304-1.058,0.568-1.583c0.065-0.129,0.173-0.297,0.295-0.496
				s0.297-0.42,0.526-0.665c0.128,0.061,0.191,0.091,0.318,0.152c0.179,0.087,0.362,0.207,0.548,0.358
				c0.186,0.151,0.506,0.375,0.59,0.562c0.104,0.232,0.057,0.692,0.068,0.951c0.012,0.26,0.075,0.528,0.051,0.604
				c-0.007,0.025-0.068,0.052-0.109,0.054c-0.054,0.002-0.081,0.004-0.135,0.007c-0.042,0.002-0.077,0.013-0.109,0.039
				c-0.031-0.032-0.047-0.046-0.078-0.079c-0.024-0.327-0.041-0.588-0.054-0.779s-0.069-0.38-0.074-0.38
				c-0.087-0.008-0.577,0.708-0.694,0.983c-0.146,0.343-0.203,0.729-0.224,1.039c-0.021,0.31-0.024,0.605-0.009,0.885
				c0.021,0.408,0.132,0.799,0.33,1.178c0.197,0.378,0.487,0.744,0.866,1.069c0.114,0.098,0.233,0.173,0.349,0.224
				C120.793,59.871,120.907,59.909,120.913,59.919z M118.374,55.972c-0.096,0.342-0.142,0.564-0.136,0.668
				c0.001,0.024,0.005,0.047,0.011,0.071c0.005,0.023,0.011,0.072,0.023,0.084c0.019,0.019,0.088,0.041,0.115,0.083
				c0.027,0.042,0.072,0.182,0.072,0.182s-0.001-0.029,0.002-0.041c0.003-0.012,0.006-0.026,0.005-0.042
				c-0.001-0.024-0.034-0.083-0.03-0.108c0.01-0.08,0.132-0.274,0.123-0.45c-0.008-0.144-0.054-0.311-0.139-0.498
				C118.4,55.94,118.392,55.952,118.374,55.972z M118.83,58.986c0.013-0.008-0.152-0.431-0.325-0.606
				c0.024,0.09,0.036,0.133,0.061,0.223C118.606,58.753,118.83,58.986,118.83,58.986z M118.523,55.326
				c-0.026,0.138-0.043,0.249-0.05,0.333c-0.008,0.084-0.032,0.189-0.032,0.189c0.001,0,0.145-0.249,0.185-0.347
				c0.04-0.099,0.058-0.192,0.053-0.281c0-0.01-0.001-0.013-0.002-0.023C118.615,55.25,118.585,55.275,118.523,55.326z
				 M120.227,59.986c-0.018-0.039-0.033-0.077-0.042-0.112s-0.015-0.065-0.016-0.089c-0.001-0.032,0.042-0.086,0.042-0.086
				c-0.004-0.01-0.329-0.061-0.336-0.213c-0.001-0.031,0.011-0.067,0.009-0.072c-0.012-0.041-0.166-0.129-0.169-0.185
				c0-0.015-0.002-0.021-0.002-0.036c-0.036-0.079-0.053-0.141-0.055-0.185s-0.027-0.064-0.076-0.062c-0.005,0-0.008,0-0.013,0.001
				c0.021,0.087,0.049,0.172,0.085,0.255c0.036,0.083,0.126,0.219,0.121,0.24c-0.003,0.01-0.051,0.027-0.059,0.028
				c-0.032,0.001-0.057-0.017-0.075-0.052c-0.018-0.034-0.07-0.085-0.092-0.134c-0.036-0.078-0.059-0.212-0.112-0.306
				c-0.054-0.094-0.066-0.287-0.089-0.309c-0.019-0.019-0.169-0.055-0.174-0.099c-0.004-0.031,0.02-0.084,0.018-0.108
				c-0.004-0.088-0.048-0.17-0.129-0.247c-0.082-0.076-0.124-0.168-0.13-0.281c-0.001-0.019-0.002-0.03-0.003-0.049
				c0.015-0.033,0.022-0.061,0.021-0.085c-0.001-0.032-0.01-0.061-0.023-0.089c-0.014-0.027-0.021-0.053-0.022-0.077
				c-0.002-0.04,0.061-0.083,0.067-0.099c0.007-0.02-0.033-0.102-0.043-0.142c-0.019,0.011-0.029,0.015-0.048,0.026
				c-0.057,0.003-0.091-0.031-0.103-0.103c0-0.01,0-0.014-0.001-0.024c-0.001-0.032,0.005-0.049,0.022-0.05
				c0.008,0,0.02,0.005,0.037,0.017c0.017,0.011,0.037,0.016,0.061,0.015c0.008,0,0.03-0.01,0.062-0.028
				c-0.001-0.024-0.002-0.036-0.004-0.06c-0.003-0.056-0.018-0.107-0.045-0.154c-0.046,0.051-0.069,0.075-0.116,0.126
				c-0.005,0-0.008,0-0.013,0.001c-0.032,0.002-0.049-0.037-0.054-0.117c-0.002-0.04-0.001-0.088,0.004-0.145
				c0.005-0.056,0.017-0.125,0.037-0.206c-0.011-0.028-0.016-0.042-0.027-0.071c0.079-0.053,0.145-0.136,0.196-0.251
				c-0.034,0.016-0.05,0.026-0.083,0.042c-0.018-0.031-0.029-0.076-0.032-0.131c-0.002-0.04-0.002-0.074,0.001-0.102
				c0.002-0.028,0.001-0.059,0-0.091c-0.001-0.014,0-0.021,0-0.036c0.021-0.073,0.064-0.112,0.129-0.115c0.01,0,0.015,0,0.025,0
				c0.024-0.009,0.04-0.034,0.05-0.07c0.011-0.036,0.037-0.094,0.049-0.153c0.011-0.055,0.042-0.199,0.114-0.407
				s0.369-0.614,0.379-0.842c0.003-0.074-0.104-0.174-0.17-0.171c-0.024,0.001-0.069,0.036-0.071,0.063
				c-0.002,0.029,0.028,0.081,0.029,0.096c0.003,0.056-0.01,0.106-0.041,0.156c-0.03,0.049-0.064,0.098-0.104,0.144
				c-0.039,0.046-0.077,0.097-0.111,0.15c-0.035,0.054-0.041,0.154-0.058,0.177c-0.007,0.01-0.054,0.017-0.086,0.022
				c-0.033,0.006-0.088,0.009-0.109,0.024c-0.115,0.081-0.178,0.371-0.168,0.562c0.002,0.038,0.002,0.057,0.004,0.095
				c0.024-0.001,0.038-0.001,0.062-0.003c0.013-0.073,0.05-0.123,0.115-0.15c0.016,0.014,0.023,0.021,0.039,0.034
				c-0.036,0.114-0.083,0.204-0.145,0.271c-0.01-0.004-0.016-0.006-0.026-0.01c-0.045,0.067-0.073,0.137-0.081,0.213
				c-0.008,0.077-0.014,0.156-0.018,0.236s-0.007,0.161-0.011,0.241c-0.004,0.081-0.063,0.196-0.06,0.245
				c0.001,0.02,0.027,0.058,0.028,0.082s0,0.046-0.008,0.061c-0.012,0.024-0.03,0.042-0.042,0.05s-0.018,0.021-0.017,0.038
				s0.015,0.022,0.04,0.021c0.034-0.002,0.05-0.003,0.084-0.005c0.025,0.015,0.038,0.03,0.039,0.046
				c0.001,0.024-0.029,0.063-0.033,0.086c-0.01,0.052,0.051,0.16,0.086,0.218c0.036,0.058,0.056,0.119,0.06,0.183
				c0.001,0.024-0.014,0.082-0.021,0.084c-0.012,0.004-0.069-0.049-0.083-0.085c-0.014-0.035-0.027-0.073-0.038-0.113
				c-0.01-0.04-0.02-0.078-0.03-0.118s-0.033-0.078-0.068-0.117c0.002,0.034,0.001,0.05,0.003,0.083
				c0.006,0.12,0.11,0.374,0.086,0.452c-0.005,0.018-0.046,0.051-0.045,0.075s0.018,0.052,0.048,0.083
				c0.03,0.03,0.074,0.14,0.074,0.14c0.003,0,0.023-0.038,0.022-0.062s-0.008-0.042-0.017-0.058c0.027-0.04,0.042-0.061,0.069-0.101
				c0.051,0.046,0.078,0.093,0.08,0.141c0.001,0.024-0.008,0.05-0.009,0.061c-0.005,0.101,0.1,0.278,0.154,0.387
				c0.055,0.109,0.092,0.221,0.115,0.331c0.067,0.312,0.505,0.865,0.496,0.924c-0.001,0.008-0.07,0.027-0.118,0.03
				c-0.041,0.002-0.071-0.01-0.088-0.037s-0.034-0.063-0.053-0.106s-0.043-0.086-0.073-0.132c-0.031-0.046-0.076-0.089-0.134-0.126
				c0.001,0.029,0.002,0.044,0.004,0.073c0.036,0.069,0.064,0.124,0.086,0.167c0.022,0.043,0.035,0.081,0.037,0.113
				c0.001,0.016-0.007,0.03-0.01,0.036c-0.005,0.014,0.013,0.039,0.037,0.041c0.024,0.003,0.104,0.006,0.123,0.024
				c0.032,0.032,0.08,0.178,0.176,0.248c0.096,0.071,0.392,0.24,0.392,0.24c0.012-0.008-0.049-0.209-0.134-0.294
				c-0.085-0.084-0.209-0.314-0.209-0.314c0.003-0.003,0.1,0.052,0.129,0.066c0.029,0.015,0.039,0.049,0.046,0.069
				c0.017,0.044,0.075,0.104,0.098,0.147s0.064,0.08,0.106,0.084c0.033,0.004,0.067-0.018,0.078-0.046s0.037-0.043,0.077-0.045
				C120.213,59.987,120.217,59.987,120.227,59.986z M119.463,58.762c0.001,0-0.057-0.146-0.109-0.228s-0.115-0.177-0.186-0.286
				c0,0.01,0.001,0.015,0.002,0.025c0.003,0.064,0.032,0.133,0.089,0.21C119.316,58.56,119.463,58.762,119.463,58.762z
				 M119.686,53.608c-0.002-0.023-0.047-0.058-0.064-0.057s-0.031,0.024-0.042,0.064c-0.01,0.041-0.044,0.061-0.103,0.064
				c-0.005,0-0.007,0.001-0.012,0.001c-0.084,0.157-0.172,0.298-0.265,0.427c-0.092,0.129-0.164,0.412-0.164,0.412
				c0.007,0.004,0.109-0.083,0.135-0.141c0.026-0.057,0.053-0.115,0.079-0.177c0.026-0.062,0.058-0.118,0.097-0.168
				s0.138-0.075,0.18-0.105c0.029-0.021,0.058-0.098,0.081-0.146C119.63,53.732,119.689,53.643,119.686,53.608z M119.779,54
				c-0.023-0.015-0.124,0.033-0.145,0.079c-0.018,0.04-0.022,0.079-0.021,0.087c0.003,0.072,0.072,0.2,0.072,0.2
				c0.01-0.001,0.057-0.121,0.079-0.166s0.034-0.089,0.032-0.129C119.795,54.047,119.788,54.005,119.779,54z"/>
			<path fill="#FFFFFB" d="M127.773,53.342c0.321,0.38,0.523,1.124,0.678,1.726s0.233,1.143,0.238,1.623
				c0.001,0.144-0.003,0.307-0.018,0.486c-0.015,0.18-0.029,0.384-0.055,0.595c-0.044,0.354-0.125,0.682-0.214,0.963
				c-0.09,0.28-0.2,0.536-0.334,0.767c-0.134,0.229-0.301,0.442-0.499,0.637c-0.198,0.195-0.56,0.551-0.701,0.552
				c-0.089,0-0.322-0.228-0.478-0.38c-0.156-0.153-0.302-0.318-0.439-0.496c-0.137-0.177-0.262-0.361-0.375-0.554
				s-0.208-0.381-0.286-0.564c-0.099-0.242-0.149-0.364-0.248-0.606c-0.104-0.262-0.16-0.536-0.168-0.824
				c-0.002-0.088,0-0.179,0.005-0.275c0.005-0.096,0.009-0.196,0.006-0.3c-0.001-0.04-0.007-0.08-0.012-0.12
				s-0.008-0.084-0.009-0.132c-0.004-0.144,0.019-0.338,0.065-0.588c0.046-0.249,0.086-0.604,0.191-0.93
				c0.19-0.592,0.416-0.946,0.432-0.947c0,0.01,0.001,0.014,0.001,0.024c0.134-0.267,0.287-0.515,0.456-0.743
				c0.169-0.228,0.45-0.581,0.584-0.6C126.817,52.622,127.532,53.056,127.773,53.342z M125.53,57.094
				c-0.019-0.072-0.083-0.146-0.102-0.142c-0.023,0.005-0.06,0.11-0.058,0.183c0,0.024,0.002,0.035,0.002,0.059
				c0.057-0.001,0.101-0.011,0.133-0.028C125.516,57.137,125.521,57.123,125.53,57.094z M126.144,56.12
				c0,0.019,0.001,0.029,0.002,0.048c0.001,0.072-0.034,0.11-0.107,0.111c-0.073,0.001-0.163-0.073-0.164-0.142
				c-0.002-0.086,0.069-0.249,0.09-0.386c0.022-0.136,0.071-0.428,0.065-0.434c-0.004-0.004-0.068,0.035-0.104,0.08
				s-0.069,0.1-0.101,0.164c-0.032,0.064-0.055,0.133-0.074,0.206c-0.019,0.072-0.028,0.136-0.027,0.192
				c0.002,0.08,0.012,0.148,0.034,0.204c0.022,0.055,0.034,0.103,0.035,0.143c0,0.024-0.003,0.044-0.011,0.06
				c-0.015,0.005-0.022,0.008-0.037,0.013c0-0.019,0-0.028,0-0.047c-0.006-0.048-0.01-0.072-0.016-0.12
				c-0.039,0.089-0.074,0.171-0.104,0.248c-0.031,0.077-0.045,0.168-0.043,0.272c0.001,0.048,0.006,0.083,0.015,0.106
				c0.01,0,0.014,0,0.024,0c0.037-0.116,0.056-0.174,0.092-0.291c0.024-0.024,0.043-0.037,0.06-0.038
				c0.024,0,0.044,0.002,0.049,0.01c0.021,0.032,0.048,0.075,0.093,0.078c0.045,0.003,0.083,0.063,0.069,0.1
				c-0.01,0.026-0.051,0.05-0.059,0.05c-0.017,0-0.039-0.013-0.063-0.036c-0.004,0.034-0.006,0.051-0.01,0.085
				c0.05,0.055,0.184,0.128,0.211,0.115c0.006-0.003,0.012-0.028,0.016-0.036c0.004-0.008,0.006-0.021,0.005-0.037
				c-0.004-0.192-0.002-0.286,0.006-0.286c0,0.005,0.002,0.006,0.002,0.011c-0.026-0.047-0.04-0.087-0.04-0.119
				c-0.001-0.04,0.017-0.073,0.052-0.102c0.036-0.029,0.092-0.08,0.126-0.141c0.044-0.08,0.058-0.173,0.057-0.229
				c-0.001-0.04-0.006-0.069-0.014-0.085C126.223,55.98,126.196,56.028,126.144,56.12z M126.02,57.095
				c-0.001-0.027-0.105-0.083-0.162-0.082c-0.106,0.002-0.157,0.058-0.154,0.162c0.001,0.032,0.002,0.064,0.008,0.101
				c0.005,0.036,0.005,0.11,0.009,0.113c0.006,0.004,0.049-0.02,0.048-0.036c-0.001-0.034-0.002-0.051-0.003-0.084
				c0-0.024,0.025-0.072,0.037-0.073c0.033-0.004,0.112,0.082,0.113,0.106s-0.027,0.044-0.079,0.062
				c-0.053,0.017-0.078,0.046-0.077,0.086s0.047,0.093,0.051,0.117c0.003,0.021-0.03,0.074-0.046,0.099
				c-0.016,0.024-0.023,0.044-0.022,0.06c0,0.008,0.034,0.035,0.061,0.034c0.077-0.003,0.167-0.124,0.165-0.22
				c-0.001-0.04-0.006-0.078-0.015-0.114c-0.009-0.036-0.014-0.068-0.015-0.101C125.936,57.245,126.021,57.124,126.02,57.095z
				 M126.255,59.035c0.047-0.073,0.07-0.138,0.069-0.194c-0.001-0.063-0.07-0.167-0.152-0.296c-0.009-0.014-0.013-0.044-0.014-0.084
				c-0.001-0.048,0.006-0.088,0.022-0.121c0.016-0.032,0.022-0.061,0.022-0.084c-0.001-0.04-0.039-0.069-0.1-0.094
				c-0.063-0.026-0.124-0.153-0.124-0.153c-0.006-0.001-0.07,0.177-0.068,0.265c0.001,0.064,0.013,0.144,0.042,0.181
				c0.035,0.045,0.095,0.1,0.112,0.16c0.018,0.059,0.031,0.12,0.041,0.183c0.009,0.064,0.026,0.126,0.047,0.186
				c0.021,0.059,0.069,0.108,0.142,0.146C126.279,59.091,126.271,59.073,126.255,59.035z M126.69,53.794
				c-0.026-0.056-0.065-0.086-0.115-0.085c-0.066,0.001-0.16,0.081-0.28,0.235c-0.121,0.154-0.455,0.67-0.455,0.67
				c0.002,0.002,0.14-0.069,0.201-0.083c0.062-0.013,0.1-0.05,0.116-0.106C126.37,54.171,126.477,54.048,126.69,53.794z
				 M126.326,57.784c-0.002-0.128-0.234-0.655-0.234-0.655c-0.004,0-0.02,0.141-0.019,0.181c0.002,0.088,0.022,0.183,0.065,0.286
				c0.006,0.082,0.011,0.122,0.018,0.204c0.077,0.159,0.139,0.245,0.188,0.26C126.337,57.949,126.333,57.895,126.326,57.784z
				 M127.264,53.327c-0.235,0.276-0.513,0.679-0.832,1.213c-0.015,0-0.022,0.001-0.037,0.001c-0.016-0.033-0.023-0.049-0.039-0.082
				c-0.049,0.025-0.074,0.057-0.078,0.097s-0.032,0.103-0.028,0.121c0.003,0.015,0.038,0.047,0.038,0.071
				c0.001,0.08-0.082,0.113-0.109,0.135c-0.017,0.013-0.025,0.075-0.029,0.103c-0.004,0.028-0.004,0.057-0.003,0.089
				c0.001,0.04,0.066,0.202,0.066,0.202c0.002,0,0.022-0.152,0.05-0.24c0.027-0.088,0.038-0.227,0.075-0.302
				c0.123-0.245,0.373-0.421,0.373-0.43c-0.005,0-0.008,0.001-0.013,0.001c0.186-0.219,0.455-0.42,0.535-0.559
				c0.038-0.064,0.034-0.213,0.032-0.326C127.265,53.384,127.264,53.365,127.264,53.327z M126.605,55.186
				c0.013-0.027,0.015-0.077,0.022-0.109c0.007-0.032,0.012-0.06,0.011-0.084c-0.001-0.04-0.026-0.093-0.039-0.095
				c-0.064-0.007-0.405,0.705-0.379,0.739c0.011,0.014,0.153-0.05,0.188-0.143C126.443,55.403,126.558,55.286,126.605,55.186z
				 M126.563,58.668c0.004-0.001,0.011-0.036,0.01-0.06c-0.001-0.04-0.018-0.081-0.05-0.12c-0.033-0.04-0.135-0.141-0.135-0.141
				C126.383,58.351,126.551,58.67,126.563,58.668z M126.888,59.779c0.007-0.032,0.009-0.078,0.008-0.133
				c-0.002-0.096-0.026-0.191-0.077-0.286c-0.137-0.094-0.206-0.14-0.344-0.233c0.067,0.135,0.135,0.267,0.202,0.397
				s0.133,0.259,0.2,0.386c0.068,0.037,0.102,0.056,0.17,0.093c0.007-0.039,0.013-0.082,0.016-0.126
				c0.003-0.043,0.003-0.083,0.003-0.125c0-0.023-0.001-0.051-0.006-0.078c-0.004-0.028-0.007-0.055-0.007-0.078
				C126.986,59.668,126.954,59.706,126.888,59.779z M127.389,59.456c0.069,0,0.341-0.56,0.476-1.045
				c0.134-0.486,0.199-1.061,0.19-1.725c-0.006-0.456-0.05-0.903-0.13-1.342c-0.08-0.439-0.465-1.392-0.503-1.396
				c-0.032-0.004-0.211,0.295-0.274,0.472c-0.063,0.177-0.204,0.357-0.289,0.509c-0.336,0.599-0.414,1.501-0.399,2.205
				c0.003,0.16,0.014,0.315,0.034,0.467c0.02,0.152,0.043,0.312,0.093,0.431c0.102,0.241,0.257,0.502,0.366,0.749
				S127.342,59.456,127.389,59.456z M126.779,59.107c0.02,0.009,0.028,0.015,0.048,0.023c0.016,0,0.024-0.009,0.023-0.024
				c-0.001-0.04-0.114-0.226-0.114-0.226c-0.003,0-0.025,0.066-0.053,0.079c-0.028,0.013-0.041,0.028-0.041,0.043
				c0.01,0.01,0.013,0.012,0.023,0.022C126.71,59.057,126.735,59.075,126.779,59.107z M127.044,53.449
				c-0.009-0.032-0.058-0.106-0.143-0.225c-0.063,0.097-0.094,0.145-0.157,0.242c0.033-0.008,0.083-0.014,0.149-0.015
				C126.953,53.451,126.984,53.45,127.044,53.449z"/>
			<path fill="#FFFFFB" d="M136.809,60.399c-0.121,0.029-0.248,0.042-0.376,0.039c-0.048-0.001-0.074-0.003-0.122-0.004
				c-0.147-0.195-0.251-0.458-0.356-0.69c-0.07-0.154-0.161-0.299-0.203-0.412s-0.069-0.195-0.086-0.242
				c-0.014-0.04-0.039-0.072-0.066-0.092s-0.053-0.039-0.076-0.055c-0.024-0.016-0.047-0.039-0.067-0.067
				c-0.02-0.028-0.014-0.095-0.026-0.126c-0.046-0.111-0.253-0.277-0.332-0.415c-0.016,0.053-0.022,0.08-0.038,0.132
				c0.007,0.088,0.009,0.174,0.012,0.258s0.003,0.158,0.002,0.222c-0.002,0.088-0.005,0.16-0.01,0.216
				c-0.005,0.057-0.006,0.104-0.007,0.145c-0.005,0.256,0.037,0.577,0.126,0.962c-0.097,0.046-0.146,0.07-0.242,0.116
				c-0.137-0.01-0.279-0.018-0.428-0.025c-0.147-0.006-0.292-0.011-0.436-0.013c-0.104-0.001-0.212,0-0.316,0.003
				c-0.104,0.003-0.211,0.002-0.314,0.001c-0.043-0.043-0.063-0.064-0.105-0.108c0.035-0.288,0.061-0.62,0.076-0.996
				s0.027-0.803,0.032-1.284c0.003-0.28,0.004-0.578,0.003-0.894c-0.001-0.316-0.045-0.7-0.008-1.003
				c0.007-0.057,0.027-0.107,0.027-0.131s-0.016-0.089-0.039-0.198c-0.022-0.108-0.03-0.278-0.028-0.51
				c0.002-0.224,0.007-0.423,0.017-0.6c0.01-0.176,0.014-0.328,0.015-0.456c0.004-0.392-0.017-0.679-0.065-0.859
				c-0.048-0.181-0.07-0.287-0.07-0.318c0.001-0.08,0.09-0.212,0.148-0.215c0.038-0.002,0.16,0.05,0.275,0.051
				c0.05,0,0.076,0.001,0.126,0.002c0.066,0.001,0.128,0.005,0.187,0.014c0.058,0.009,0.151,0.066,0.172,0.063
				c0.014-0.003,0.057-0.046,0.09-0.046c0.041,0,0.079,0.012,0.115,0.037c0.037,0.024,0.077,0.036,0.118,0.036
				c0.017,0,0.061-0.021,0.099-0.021c0.025,0,0.063,0.015,0.088,0.019c0.025,0.004,0.05,0.006,0.074,0.006
				c0.066,0.001,0.15-0.019,0.25-0.065c0.144,0.017,0.216,0.025,0.359,0.042c0.2,0.396,0.358,0.695,0.475,0.897
				c0.115,0.203,0.161,0.335,0.169,0.362c0.025,0.092,0.146,0.232,0.217,0.354s0.161,0.249,0.203,0.354
				c0.119,0.3,0.131,0.704,0.123,1.023c-0.008,0.312-0.088,0.671-0.268,0.978c-0.086,0.146-0.188,0.271-0.258,0.361
				c-0.071,0.09-0.131,0.16-0.18,0.194c-0.091,0.063-0.208,0.199-0.326,0.412c-0.008,0.016-0.013,0.032-0.013,0.048
				c-0.001,0.064,0.022,0.104,0.075,0.121c0.052,0.017,0.078,0.053,0.077,0.109c0,0.014,0.001,0.022,0.001,0.037
				c0.242,0.421,0.418,0.905,0.59,1.298c0.054,0.124,0.123,0.232,0.165,0.308c0.042,0.077,0.087,0.134,0.126,0.166
				c0,0.015-0.001,0.021-0.001,0.035c-0.001,0.032,0.008,0.057,0.027,0.074c0.02,0.016,0.034,0.037,0.041,0.061
				C136.709,60.224,136.744,60.282,136.809,60.399z M133.879,54.308c-0.015-0.104-0.103-0.186-0.107-0.182
				c-0.003,0.002,0,0.035,0.004,0.05c0.004,0.016,0.006,0.031,0.006,0.047s-0.002,0.032-0.006,0.048s-0.007,0.032-0.007,0.048
				c-0.001,0.064,0.078,0.147,0.085,0.144c0.013-0.005,0.025-0.103,0.025-0.119C133.879,54.329,133.879,54.322,133.879,54.308z
				 M133.95,59.602c-0.065,0.079-0.093,0.168-0.077,0.269c0.015,0.1-0.065,0.242-0.063,0.27c0,0.004,0.02,0.011,0.035,0.011
				c0.017,0,0.034-0.01,0.037-0.023c0.001-0.006-0.002-0.014-0.006-0.018c-0.004-0.005-0.006-0.01-0.006-0.018
				c0-0.04,0.017-0.08,0.046-0.115s0.043-0.063,0.043-0.088C133.957,59.774,133.953,59.717,133.95,59.602z M134.118,56.111
				c-0.023-0.097-0.037-0.173-0.036-0.229c0.001-0.082,0-0.123,0.001-0.204c0.001-0.112-0.019-0.216-0.066-0.313
				c-0.003,0.235-0.006,0.352-0.009,0.587C134.052,56.015,134.074,56.048,134.118,56.111z M134.338,58.646
				c0.039-0.164-0.055-0.502-0.056-0.715c-0.001-0.212-0.156-0.548-0.156-0.548c-0.003,0.001-0.002,0.112,0.002,0.144
				c0.004,0.032,0.005,0.056,0.005,0.071c-0.001,0.064-0.084,0.209-0.076,0.251c0.008,0.043,0.122,0.165,0.12,0.277
				c-0.001,0.072-0.023,0.221-0.066,0.444c0.024,0.024,0.032,0.037,0.057,0.061c-0.001,0.048-0.054,0.094-0.058,0.106
				c-0.003,0.011,0.02,0.062,0.02,0.086c-0.001,0.071-0.082,0.21-0.075,0.25c0.003,0.018,0.053,0.072,0.06,0.12
				c0.007,0.049,0.021,0.11,0.034,0.182c0.025,0.14,0.045,0.215,0.069,0.216c0.005,0,0.006,0,0.011,0
				c0.01-0.029,0.017-0.042,0.026-0.071c-0.032-0.032-0.045-0.061-0.045-0.085c0.001-0.04,0.012-0.072,0.041-0.096
				c0.028-0.024,0.043-0.045,0.043-0.07c0.001-0.04-0.06-0.096-0.06-0.096c0-0.002,0.024-0.02,0.024-0.037
				c0-0.016-0.008-0.03-0.027-0.042s-0.03-0.026-0.03-0.043c0-0.008,0.006-0.016,0.015-0.025c0.039-0.009,0.055-0.013,0.094-0.021
				c-0.008-0.04-0.028-0.081-0.068-0.122c-0.008-0.008-0.013-0.019-0.013-0.035c0-0.023,0.009-0.052,0.03-0.083
				C134.278,58.733,134.329,58.681,134.338,58.646z M134.299,54.348c0.008-0.026-0.036-0.124-0.035-0.179
				c0.001-0.056-0.056-0.134-0.059-0.133c-0.011,0.003-0.027,0.111-0.027,0.143c-0.001,0.056,0.032,0.111,0.035,0.132
				c0.002,0.013-0.013,0.059-0.014,0.107c-0.001,0.04,0,0.087,0.008,0.139c0.008,0.052,0.05,0.162,0.05,0.162
				c0.001,0,0.001-0.078-0.003-0.113c-0.004-0.036-0.006-0.069-0.006-0.101C134.249,54.426,134.295,54.362,134.299,54.348z
				 M134.473,53.498c0.019-0.018-0.023-0.163-0.072-0.228c0,0.015,0,0.021,0,0.035c-0.001,0.048-0.03,0.083-0.088,0.102
				s-0.087,0.048-0.088,0.088c0,0.016,0.037,0.072,0.049,0.072C134.295,53.568,134.459,53.512,134.473,53.498z M134.436,56.091
				c0.007-0.081-0.039-0.157-0.072-0.157c-0.016,0-0.038,0.012-0.063,0.035c0.013,0.125,0.022,0.188,0.035,0.313
				c-0.042,0.056-0.064,0.103-0.069,0.147s-0.006,0.095-0.007,0.151c-0.002,0.176-0.02,0.296-0.045,0.359
				c-0.024,0.063-0.036,0.104-0.036,0.12c0,0.032,0.027,0.084,0.033,0.084c0.01,0,0.05-0.058,0.075-0.082
				c0.024-0.023,0.058-0.053,0.063-0.072c0.014-0.043-0.01-0.122-0.029-0.174c-0.021-0.053-0.028-0.099-0.027-0.139
				c0-0.024,0.063-0.101,0.063-0.131c0-0.018-0.036-0.068-0.035-0.108c0.001-0.048,0.014-0.098,0.039-0.149
				C134.385,56.236,134.43,56.155,134.436,56.091z M134.283,60.073c0-0.024-0.012-0.045-0.031-0.065
				c-0.021-0.02-0.071-0.093-0.075-0.093c-0.008,0-0.04,0.072-0.04,0.097c-0.001,0.088,0.089,0.23,0.094,0.229
				c0.007-0.001,0.029-0.07,0.037-0.091c0.008-0.02,0.014-0.037,0.014-0.054c0-0.005,0-0.008,0-0.013S134.283,60.078,134.283,60.073
				z M134.518,53.823c-0.033-0.017-0.058-0.035-0.074-0.055c-0.016-0.02-0.042-0.03-0.074-0.03c-0.005,0-0.006,0-0.011,0
				c-0.017,0.008-0.025,0.023-0.025,0.047s0.002,0.052,0.01,0.083c0.008,0.032,0.016,0.073,0.024,0.121c0.024,0,0.04,0,0.064,0
				c0.058-0.031,0.082-0.075,0.083-0.13C134.515,53.846,134.518,53.838,134.518,53.823z M134.462,55.071
				c0.007-0.089-0.104-0.231-0.107-0.229c-0.006,0.002-0.017,0.073-0.021,0.101s-0.006,0.056-0.006,0.08
				c-0.001,0.08,0.035,0.18,0.045,0.181C134.391,55.205,134.459,55.106,134.462,55.071z M134.384,59.536
				c-0.024,0.009-0.032,0.012-0.057,0.021c0.022,0.113,0.03,0.18,0.03,0.205c-0.001,0.04-0.08,0.051-0.086,0.058
				c-0.008,0.009,0.043,0.093,0.107,0.134C134.381,59.786,134.381,59.704,134.384,59.536z M134.585,55.109
				c-0.001,0-0.039,0.16-0.06,0.22c-0.021,0.06-0.033,0.112-0.034,0.151c0,0.016,0.023,0.071,0.024,0.071
				c0.013,0.001,0.076-0.143,0.077-0.215c0.001-0.032,0-0.066,0.001-0.102C134.595,55.199,134.585,55.109,134.585,55.109z
				 M134.588,57.376c-0.002,0-0.016,0.121-0.041,0.168c-0.024,0.048-0.038,0.142-0.036,0.144c0.011,0.007,0.11-0.09,0.111-0.178
				C134.623,57.47,134.588,57.376,134.588,57.376z M134.662,58.795c-0.015-0.046-0.059-0.133-0.057-0.23
				c0.001-0.088,0.027-0.179,0.078-0.274c0.05-0.095,0.077-0.2,0.079-0.313c0.001-0.088-0.082-0.264-0.082-0.264
				c-0.002,0-0.037,0.109-0.052,0.143c-0.086,0.195-0.063,0.55-0.078,0.762c-0.016,0.212-0.026,0.377-0.028,0.497
				c-0.001,0.048,0.003,0.073,0.002,0.121c0.044-0.023,0.064-0.035,0.108-0.058c0.009-0.048,0.018-0.105,0.022-0.169
				S134.679,58.848,134.662,58.795z M134.99,53.664c0.008-0.004,0.013-0.061,0.014-0.109c0.003-0.152-0.226-0.496-0.227-0.496
				c-0.003,0-0.016,0.043-0.021,0.059c-0.004,0.016-0.007,0.033-0.007,0.049c-0.001,0.04,0.04,0.084,0.05,0.109
				c0.009,0.023,0.002,0.076,0.014,0.108c0.012,0.032,0.019,0.057,0.019,0.073c0,0.024-0.061,0.06-0.063,0.058
				c-0.008-0.005-0.063-0.093-0.071-0.085c-0.01,0.01-0.016,0.085-0.041,0.109c-0.024,0.023-0.038,0.047-0.038,0.071
				c0,0.032,0.065,0.05,0.074,0.061c0.027,0.035-0.023,0.251-0.037,0.347s-0.024,0.175-0.033,0.239c0,0.019,0,0.029,0,0.048
				c-0.001,0.048,0.006,0.093,0.025,0.133c0.021,0.041,0.033,0.081,0.032,0.121c-0.001,0.039-0.002,0.057-0.003,0.095
				c-0.001,0.072,0.02,0.11,0.05,0.109c0.055-0.003,0.063-0.113,0.087-0.155c0.016-0.027,0.075-0.075,0.076-0.131
				c0-0.016,0.001-0.037-0.003-0.061s-0.006-0.043-0.006-0.06c0-0.016,0.03-0.08,0.024-0.118c-0.011-0.068-0.089-0.205-0.074-0.321
				c0.014-0.116-0.007-0.229-0.063-0.342c0.02-0.009,0.028-0.013,0.048-0.022c0.033,0,0.061,0.017,0.081,0.049
				C134.918,53.634,134.979,53.67,134.99,53.664z M134.702,56.371c-0.009,0.002-0.026,0.087-0.027,0.119
				c0,0.016,0.001,0.034,0.005,0.054c0.004,0.02,0.005,0.039,0.005,0.055c-0.001,0.048-0.03,0.083-0.087,0.106
				c0.029,0.01,0.043,0.014,0.072,0.024c0.017-0.063,0.04-0.112,0.064-0.147c0.025-0.036,0.038-0.066,0.038-0.09
				C134.773,56.452,134.706,56.37,134.702,56.371z M134.673,59.814c-0.004,0-0.034,0.116-0.051,0.156
				c-0.018,0.04-0.024,0.076-0.025,0.108c0,0.016,0.007,0.041,0.023,0.072c0.01,0,0.014,0,0.023,0
				c0.026-0.103,0.039-0.186,0.04-0.25C134.685,59.86,134.673,59.814,134.673,59.814z M134.855,55.161
				c0.058-0.055,0.086-0.106,0.087-0.155c0.001-0.04-0.008-0.08-0.031-0.121c-0.04,0.009-0.06,0.015-0.1,0.023
				c-0.025,0.063-0.041,0.119-0.042,0.167c-0.001,0.04,0.011,0.072,0.012,0.083c0.004,0.078-0.065,0.259-0.068,0.419
				c-0.001,0.072,0.004,0.167,0.015,0.283c0.01,0.116,0.037,0.427,0.037,0.427c0.003,0,0.073-0.32,0.067-0.48
				s0.017-0.308,0.068-0.443C134.882,55.283,134.874,55.243,134.855,55.161z M136.138,55.678c0.003-0.144-0.019-0.29-0.061-0.439
				c-0.042-0.149-0.096-0.309-0.167-0.479c-0.047-0.113-0.121-0.236-0.221-0.37c-0.101-0.134-0.194-0.314-0.281-0.539
				c-0.038-0.097-0.056-0.146-0.094-0.242c-0.051,0.527-0.091,1.056-0.121,1.587c-0.03,0.531-0.05,1.063-0.059,1.591
				c-0.002,0.136-0.003,0.27-0.001,0.401s0.001,0.267-0.001,0.402c0.089-0.07,0.134-0.105,0.223-0.176
				c0.068-0.126,0.141-0.244,0.221-0.351c0.08-0.107,0.156-0.213,0.228-0.319c0.072-0.106,0.13-0.217,0.183-0.332
				c0.052-0.115,0.09-0.239,0.109-0.375c0.001-0.029-0.003-0.043-0.002-0.072c0.001-0.064,0.019-0.128,0.045-0.191
				C136.14,55.735,136.137,55.716,136.138,55.678z"/>
			<path fill="#FFFFFB" d="M144.014,53.674c0.293,0.401,0.444,1.157,0.558,1.769c0.112,0.611,0.153,1.156,0.125,1.635
				c-0.009,0.144-0.025,0.306-0.052,0.484c-0.027,0.179-0.056,0.381-0.097,0.59c-0.068,0.35-0.167,0.671-0.276,0.945
				c-0.108,0.273-0.239,0.522-0.389,0.742c-0.149,0.219-0.33,0.422-0.541,0.603c-0.21,0.181-0.599,0.51-0.74,0.501
				c-0.089-0.006-0.303-0.251-0.447-0.414s-0.28-0.338-0.404-0.524c-0.124-0.186-0.235-0.378-0.336-0.579
				c-0.1-0.201-0.182-0.394-0.247-0.581c-0.082-0.249-0.123-0.373-0.205-0.622c-0.086-0.268-0.121-0.547-0.109-0.835
				c0.004-0.088,0.011-0.178,0.022-0.274c0.012-0.095,0.021-0.195,0.026-0.299c0.002-0.04-0.001-0.081-0.003-0.121
				s-0.003-0.084-0.001-0.132c0.006-0.144,0.041-0.339,0.104-0.584c0.063-0.245,0.129-0.595,0.256-0.914
				c0.23-0.577,0.48-0.915,0.498-0.914c0,0.01-0.001,0.013-0.001,0.022c0.152-0.257,0.32-0.493,0.505-0.708
				c0.185-0.215,0.489-0.549,0.625-0.559C143.11,52.89,143.793,53.372,144.014,53.674z M141.517,57.263
				c-0.014-0.073-0.073-0.152-0.092-0.149c-0.024,0.004-0.066,0.104-0.069,0.177c-0.001,0.024,0.001,0.036,0,0.06
				c0.057,0.002,0.1-0.003,0.133-0.018C141.499,57.305,141.506,57.291,141.517,57.263z M142.198,56.333
				c-0.001,0.019-0.002,0.029-0.003,0.048c-0.004,0.072-0.041,0.106-0.115,0.103s-0.158-0.083-0.155-0.152
				c0.004-0.085,0.087-0.244,0.118-0.378c0.03-0.134,0.101-0.423,0.095-0.429c-0.004-0.004-0.067,0.032-0.106,0.074
				s-0.078,0.095-0.114,0.157s-0.065,0.127-0.09,0.199c-0.023,0.071-0.036,0.135-0.039,0.191c-0.004,0.08,0.003,0.148,0.021,0.205
				s0.026,0.105,0.024,0.145c-0.001,0.024-0.007,0.045-0.016,0.061c-0.015,0.004-0.021,0.005-0.036,0.01
				c0.001-0.019,0.003-0.028,0.004-0.047c-0.003-0.048-0.007-0.073-0.01-0.121c-0.045,0.086-0.083,0.167-0.119,0.241
				s-0.058,0.164-0.063,0.268c-0.002,0.048-0.001,0.083,0.006,0.107c0.01,0,0.016,0.001,0.025,0.001
				c0.044-0.113,0.069-0.17,0.113-0.284c0.026-0.023,0.045-0.034,0.062-0.033c0.023,0.001,0.043,0.008,0.048,0.015
				c0.02,0.032,0.044,0.076,0.089,0.082c0.045,0.006,0.076,0.067,0.06,0.103c-0.012,0.025-0.054,0.046-0.062,0.046
				c-0.017-0.001-0.035-0.013-0.058-0.038c-0.007,0.033-0.011,0.049-0.018,0.083c0.046,0.059,0.173,0.142,0.201,0.13
				c0.006-0.002,0.018-0.026,0.022-0.035c0.004-0.008,0.005-0.021,0.006-0.038c0.009-0.192,0.017-0.286,0.024-0.286
				c0,0.005,0.001,0.007,0.001,0.012c-0.022-0.049-0.033-0.09-0.031-0.122c0.002-0.04,0.022-0.073,0.06-0.099
				c0.038-0.026,0.095-0.073,0.133-0.132c0.05-0.077,0.076-0.168,0.079-0.224c0.002-0.04-0.005-0.069-0.012-0.085
				C142.284,56.199,142.257,56.244,142.198,56.333z M142.006,57.296c0.001-0.027-0.1-0.089-0.156-0.092
				c-0.105-0.005-0.159,0.044-0.164,0.148c-0.002,0.032-0.003,0.067,0,0.103c0.002,0.036-0.001,0.11,0.003,0.114
				c0.005,0.004,0.049-0.018,0.05-0.034c0.002-0.034-0.001-0.05,0.001-0.084c0.001-0.024,0.027-0.07,0.039-0.07
				c0.033-0.001,0.106,0.088,0.105,0.112s-0.025,0.043-0.079,0.057c-0.055,0.014-0.083,0.041-0.085,0.081s0.041,0.097,0.043,0.121
				c0.002,0.021-0.036,0.071-0.053,0.095c-0.018,0.023-0.024,0.043-0.025,0.059c0,0.008,0.028,0.038,0.056,0.039
				c0.076,0.002,0.178-0.113,0.183-0.208c0.002-0.04-0.002-0.078-0.008-0.115c-0.006-0.036-0.01-0.069-0.008-0.102
				C141.911,57.44,142.005,57.326,142.006,57.296z M142.107,59.247c0.052-0.07,0.078-0.132,0.081-0.188
				c0.003-0.063-0.059-0.171-0.132-0.307c-0.008-0.014-0.011-0.044-0.009-0.084c0.002-0.048,0.013-0.088,0.03-0.12
				c0.019-0.031,0.027-0.058,0.028-0.082c0.002-0.04-0.036-0.071-0.095-0.1c-0.061-0.03-0.109-0.163-0.109-0.163
				c-0.007-0.001-0.083,0.172-0.087,0.26c-0.003,0.064,0.001,0.143,0.027,0.183c0.032,0.047,0.087,0.107,0.101,0.167
				c0.014,0.06,0.023,0.123,0.028,0.187c0.005,0.065,0.018,0.128,0.035,0.188c0.017,0.06,0.059,0.113,0.129,0.156
				C142.123,59.306,142.12,59.286,142.107,59.247z M142.903,54.048c-0.021-0.057-0.059-0.088-0.108-0.091
				c-0.066-0.003-0.164,0.069-0.295,0.215c-0.131,0.146-0.504,0.636-0.504,0.636c0.002,0.002,0.145-0.058,0.207-0.067
				c0.062-0.009,0.105-0.042,0.125-0.097C142.557,54.406,142.673,54.287,142.903,54.048z M142.264,58.005
				c0.006-0.128-0.188-0.669-0.188-0.669c-0.004,0-0.029,0.139-0.031,0.179c-0.004,0.088,0.009,0.184,0.045,0.29
				c0.001,0.082,0.004,0.123,0.005,0.204c0.065,0.164,0.122,0.254,0.17,0.272C142.265,58.171,142.263,58.116,142.264,58.005z
				 M143.508,53.624c-0.255,0.259-0.561,0.643-0.916,1.154c-0.015,0-0.021,0-0.035-0.001c-0.014-0.034-0.02-0.052-0.033-0.086
				c-0.051,0.021-0.077,0.053-0.083,0.092s-0.041,0.1-0.038,0.118c0.002,0.015,0.033,0.05,0.032,0.074
				c-0.004,0.08-0.087,0.107-0.116,0.127c-0.018,0.012-0.031,0.072-0.036,0.1c-0.005,0.028-0.009,0.058-0.011,0.09
				c-0.002,0.04,0.051,0.206,0.051,0.206c0.003,0,0.036-0.15,0.069-0.236c0.032-0.086,0.048-0.223,0.091-0.295
				c0.14-0.236,0.406-0.394,0.406-0.402c-0.005,0-0.01,0-0.015,0c0.201-0.206,0.483-0.39,0.573-0.522
				c0.042-0.062,0.049-0.21,0.055-0.322C143.504,53.681,143.506,53.662,143.508,53.624z M142.723,55.433
				c0.015-0.026,0.019-0.075,0.028-0.106c0.01-0.031,0.017-0.061,0.018-0.084c0.002-0.04-0.021-0.094-0.032-0.096
				c-0.063-0.012-0.458,0.675-0.434,0.711c0.01,0.015,0.158-0.038,0.199-0.128C142.543,55.639,142.669,55.529,142.723,55.433z
				 M142.437,58.903c0.004,0,0.015-0.035,0.016-0.059c0.002-0.04-0.011-0.081-0.041-0.123s-0.126-0.15-0.126-0.15
				C142.28,58.574,142.424,58.905,142.437,58.903z M142.684,60.034c0.01-0.032,0.016-0.076,0.019-0.132
				c0.005-0.096-0.014-0.194-0.057-0.292c-0.131-0.103-0.197-0.154-0.328-0.257c0.058,0.14,0.117,0.278,0.175,0.413
				c0.059,0.135,0.116,0.268,0.175,0.399c0.065,0.042,0.098,0.062,0.163,0.103c0.01-0.039,0.017-0.08,0.023-0.124
				c0.007-0.042,0.011-0.085,0.013-0.126c0.001-0.023,0-0.05-0.003-0.077c-0.003-0.028,0.001-0.056,0.002-0.08
				C142.794,59.929,142.755,59.966,142.684,60.034z M143.208,59.747c0.068,0.004,0.376-0.535,0.544-1.01
				c0.168-0.476,0.273-1.044,0.311-1.707c0.025-0.456,0.016-0.904-0.033-1.348c-0.05-0.443-0.37-1.422-0.407-1.43
				c-0.031-0.006-0.232,0.281-0.307,0.453c-0.075,0.172-0.228,0.342-0.323,0.488c-0.377,0.574-0.517,1.468-0.551,2.171
				c-0.008,0.16-0.009,0.317,0,0.469c0.009,0.152,0.023,0.315,0.065,0.437c0.085,0.247,0.221,0.519,0.313,0.772
				C142.912,59.295,143.161,59.744,143.208,59.747z M142.624,59.356c0.019,0.01,0.024,0.016,0.043,0.026
				c0.016,0.001,0.027-0.007,0.028-0.022c0.002-0.04-0.098-0.233-0.098-0.233c-0.003,0-0.029,0.065-0.058,0.075
				c-0.029,0.011-0.046,0.024-0.047,0.04c0.009,0.01,0.016,0.017,0.024,0.027C142.56,59.304,142.582,59.321,142.624,59.356z
				 M143.281,53.731c-0.008-0.032-0.049-0.111-0.125-0.234c-0.069,0.092-0.106,0.139-0.176,0.231
				c0.032-0.006,0.088-0.008,0.153-0.005C143.193,53.726,143.222,53.729,143.281,53.731z"/>
			<path fill="#FFFFFB" d="M151.956,60.646c0.014,0.035-0.151,0.155-0.202,0.186c-0.09,0.054-0.207,0.236-0.324,0.321
				c-0.116,0.086-0.192,0.21-0.25,0.302c-0.013,0.021-0.032,0.041-0.037,0.056c-0.006,0.016-0.015,0.024-0.031,0.022
				c-0.04-0.003-0.092-0.021-0.156-0.056c-0.065-0.034-0.136-0.076-0.203-0.121c-0.288-0.194-0.553-0.434-0.787-0.722
				c-0.234-0.289-0.429-0.606-0.587-0.952c-0.159-0.346-0.278-0.712-0.354-1.1c-0.075-0.387-0.101-0.78-0.069-1.179
				c0.035-0.455,0.151-0.915,0.344-1.38c0.192-0.466,0.444-1.01,0.777-1.493c0.082-0.119,0.212-0.271,0.359-0.452
				s0.351-0.375,0.61-0.585c0.118,0.078,0.178,0.116,0.296,0.193c0.165,0.11,0.33,0.253,0.493,0.428
				c0.163,0.175,0.452,0.44,0.51,0.636c0.071,0.244-0.037,0.693-0.061,0.952c-0.023,0.259,0.002,0.534-0.031,0.606
				c-0.011,0.023-0.073,0.042-0.114,0.039c-0.054-0.005-0.08-0.007-0.134-0.012c-0.042-0.004-0.08,0.004-0.115,0.025
				c-0.026-0.036-0.04-0.055-0.066-0.091c0.021-0.327,0.04-0.585,0.053-0.777s-0.016-0.387-0.021-0.388
				c-0.084-0.02-0.67,0.622-0.823,0.879c-0.19,0.319-0.3,0.695-0.362,0.999c-0.063,0.304-0.104,0.597-0.128,0.875
				c-0.034,0.407,0.02,0.81,0.164,1.211c0.145,0.401,0.384,0.805,0.715,1.178c0.101,0.113,0.207,0.203,0.314,0.269
				C151.842,60.583,151.952,60.635,151.956,60.646z M149.973,56.39c-0.141,0.326-0.216,0.541-0.225,0.645
				c-0.002,0.024-0.001,0.048,0.001,0.072c0.002,0.024,0,0.073,0.011,0.086c0.017,0.021,0.081,0.051,0.102,0.097
				c0.021,0.046,0.045,0.19,0.045,0.19s0.008-0.029,0.013-0.04c0.005-0.012,0.009-0.026,0.01-0.042
				c0.002-0.024-0.022-0.086-0.016-0.11c0.021-0.078,0.166-0.254,0.181-0.43c0.012-0.144-0.009-0.313-0.067-0.511
				C150.005,56.364,149.994,56.372,149.973,56.39z M150.016,59.438c0.014-0.006-0.091-0.448-0.238-0.645
				c0.012,0.092,0.017,0.139,0.028,0.231C149.826,59.179,150.016,59.438,150.016,59.438z M150.208,55.771
				c-0.044,0.133-0.076,0.24-0.095,0.322s-0.056,0.184-0.056,0.184c0.001,0,0.177-0.227,0.229-0.319
				c0.053-0.092,0.081-0.184,0.088-0.271c0.001-0.01,0.003-0.013,0.004-0.022C150.312,55.708,150.275,55.729,150.208,55.771z
				 M151.266,60.619c-0.012-0.042-0.022-0.079-0.027-0.116s-0.005-0.067-0.003-0.091c0.003-0.032,0.056-0.081,0.056-0.081
				c-0.002-0.01-0.319-0.103-0.306-0.255c0.003-0.031,0.021-0.065,0.021-0.07c-0.006-0.041-0.147-0.15-0.143-0.206
				c0.001-0.014,0.002-0.022,0.003-0.036c-0.025-0.083-0.036-0.144-0.032-0.188s-0.021-0.068-0.068-0.073
				c-0.005,0-0.007,0-0.012-0.001c0.008,0.089,0.026,0.177,0.052,0.263c0.024,0.086,0.095,0.236,0.086,0.255
				c-0.004,0.01-0.054,0.019-0.062,0.018c-0.032-0.003-0.055-0.024-0.067-0.061c-0.013-0.036-0.057-0.093-0.072-0.144
				c-0.025-0.083-0.031-0.22-0.071-0.319c-0.041-0.101-0.023-0.292-0.043-0.317c-0.017-0.021-0.162-0.077-0.162-0.121
				c0-0.031,0.03-0.082,0.032-0.106c0.008-0.087-0.025-0.174-0.095-0.26c-0.07-0.086-0.102-0.186-0.092-0.298
				c0.002-0.019,0.002-0.028,0.004-0.047c0.019-0.03,0.03-0.057,0.032-0.081c0.003-0.032,0-0.064-0.01-0.093
				c-0.01-0.029-0.014-0.054-0.012-0.078c0.003-0.04,0.071-0.075,0.08-0.09c0.01-0.018-0.019-0.105-0.023-0.146
				c-0.021,0.008-0.032,0.011-0.053,0.019c-0.057-0.005-0.085-0.043-0.087-0.116c0.001-0.01,0.003-0.012,0.004-0.022
				c0.003-0.032,0.009-0.048,0.025-0.046c0.008,0,0.021,0.008,0.036,0.021c0.015,0.013,0.033,0.021,0.058,0.022
				c0.008,0,0.029-0.005,0.063-0.019c0.002-0.024,0.004-0.037,0.006-0.061c0.005-0.056-0.004-0.108-0.023-0.158
				c-0.053,0.044-0.078,0.065-0.131,0.109c-0.005,0-0.008,0-0.013-0.001c-0.032-0.002-0.047-0.045-0.04-0.125
				c0.003-0.04,0.012-0.085,0.025-0.14c0.013-0.055,0.033-0.122,0.064-0.2c-0.008-0.029-0.011-0.045-0.019-0.075
				c0.086-0.042,0.165-0.115,0.231-0.222c-0.035,0.012-0.057,0.018-0.092,0.029c-0.015-0.033-0.018-0.078-0.013-0.133
				c0.003-0.04,0.01-0.075,0.017-0.102c0.007-0.027,0.01-0.057,0.013-0.089c0.001-0.014,0-0.022,0.001-0.036
				c0.03-0.07,0.079-0.102,0.145-0.096c0.01,0.001,0.014,0.001,0.023,0.002c0.025-0.006,0.048-0.026,0.063-0.061
				c0.015-0.035,0.046-0.089,0.065-0.146c0.019-0.053,0.072-0.192,0.172-0.388s0.445-0.558,0.486-0.783
				c0.014-0.073-0.08-0.187-0.146-0.192c-0.024-0.002-0.072,0.026-0.077,0.052c-0.006,0.029,0.019,0.083,0.018,0.098
				c-0.005,0.056-0.024,0.105-0.062,0.15c-0.037,0.045-0.079,0.088-0.124,0.128c-0.045,0.041-0.089,0.087-0.129,0.135
				c-0.041,0.049-0.063,0.146-0.082,0.167c-0.009,0.009-0.054,0.01-0.087,0.011c-0.033,0.001-0.091-0.003-0.114,0.009
				c-0.125,0.064-0.228,0.341-0.243,0.533c-0.003,0.038-0.005,0.059-0.008,0.097c0.024,0.002,0.036,0.002,0.061,0.004
				c0.022-0.07,0.066-0.114,0.135-0.132c0.014,0.016,0.023,0.022,0.037,0.038c-0.051,0.108-0.111,0.191-0.183,0.249
				c-0.009-0.006-0.015-0.007-0.023-0.013c-0.055,0.06-0.092,0.127-0.11,0.202c-0.02,0.075-0.035,0.152-0.05,0.231
				s-0.029,0.158-0.044,0.237c-0.015,0.079-0.088,0.184-0.092,0.232c-0.002,0.02,0.018,0.063,0.016,0.086s-0.006,0.045-0.016,0.059
				c-0.016,0.022-0.035,0.037-0.048,0.043c-0.014,0.007-0.019,0.019-0.02,0.035s0.009,0.026,0.032,0.028
				c0.034,0.003,0.052,0.003,0.086,0.006c0.023,0.018,0.035,0.035,0.034,0.051c-0.002,0.024-0.037,0.059-0.044,0.081
				c-0.017,0.05,0.027,0.166,0.055,0.228s0.04,0.125,0.035,0.189c-0.002,0.024-0.025,0.08-0.032,0.081
				c-0.013,0.003-0.063-0.06-0.073-0.096s-0.017-0.076-0.021-0.116s-0.009-0.081-0.014-0.121s-0.021-0.082-0.05-0.125
				c-0.003,0.034-0.004,0.05-0.007,0.084c-0.01,0.12,0.057,0.384,0.022,0.458c-0.008,0.017-0.054,0.045-0.056,0.069
				s0.009,0.052,0.035,0.086s0.057,0.15,0.057,0.15c0.003,0.001,0.029-0.034,0.031-0.058s-0.002-0.044-0.009-0.061
				c0.032-0.036,0.049-0.053,0.081-0.089c0.045,0.052,0.065,0.102,0.062,0.149c-0.002,0.024-0.015,0.048-0.017,0.059
				c-0.019,0.1,0.06,0.29,0.099,0.405c0.04,0.116,0.061,0.232,0.069,0.344c0.024,0.319,0.384,0.922,0.366,0.98
				c-0.003,0.008-0.072,0.02-0.12,0.016c-0.041-0.003-0.068-0.02-0.083-0.049c-0.014-0.03-0.027-0.068-0.04-0.113
				c-0.012-0.045-0.031-0.092-0.055-0.142c-0.024-0.05-0.063-0.098-0.115-0.142c-0.002,0.029-0.003,0.043-0.005,0.072
				c0.025,0.074,0.044,0.134,0.061,0.18c0.016,0.045,0.026,0.083,0.023,0.115c-0.001,0.016-0.014,0.028-0.017,0.034
				c-0.007,0.013,0.01,0.04,0.033,0.046c0.022,0.006,0.104,0.021,0.119,0.041c0.027,0.036,0.052,0.188,0.139,0.271
				c0.086,0.084,0.357,0.291,0.357,0.291c0.014-0.006-0.021-0.216-0.093-0.312c-0.072-0.095-0.166-0.338-0.166-0.338
				c0.003-0.002,0.092,0.064,0.119,0.082c0.027,0.019,0.031,0.054,0.036,0.075c0.011,0.046,0.063,0.112,0.079,0.157
				c0.017,0.045,0.052,0.088,0.093,0.099c0.032,0.008,0.07-0.006,0.086-0.033c0.015-0.027,0.04-0.04,0.08-0.036
				C151.252,60.618,151.256,60.618,151.266,60.619z M150.674,59.303c0.001,0-0.037-0.153-0.078-0.241s-0.089-0.191-0.145-0.308
				c-0.001,0.01,0,0.015-0.001,0.024c-0.005,0.064,0.014,0.138,0.06,0.221C150.556,59.083,150.674,59.303,150.674,59.303z
				 M151.594,54.227c0.001-0.023-0.038-0.063-0.056-0.065c-0.017-0.001-0.034,0.018-0.05,0.056
				c-0.016,0.039-0.051,0.056-0.108,0.051c-0.005,0-0.007,0-0.012,0c-0.104,0.144-0.211,0.272-0.32,0.387s-0.218,0.385-0.218,0.385
				c0.006,0.005,0.117-0.067,0.151-0.12s0.067-0.108,0.102-0.166s0.071-0.108,0.116-0.152s0.151-0.056,0.196-0.08
				c0.031-0.017,0.067-0.089,0.097-0.134C151.521,54.342,151.592,54.262,151.594,54.227z M151.633,54.628
				c-0.021-0.018-0.128,0.016-0.154,0.059c-0.022,0.037-0.029,0.074-0.03,0.082c-0.006,0.071,0.042,0.208,0.042,0.208
				c0.01,0,0.073-0.112,0.103-0.153c0.028-0.042,0.043-0.082,0.047-0.122C151.642,54.677,151.641,54.635,151.633,54.628z"/>
			<path fill="#FFFFFB" d="M159.655,55.061c0.267,0.421,0.365,1.186,0.437,1.803c0.072,0.618,0.078,1.164,0.018,1.64
				c-0.018,0.143-0.047,0.302-0.085,0.479c-0.038,0.177-0.081,0.378-0.136,0.583c-0.091,0.344-0.215,0.659-0.342,0.925
				c-0.127,0.266-0.274,0.504-0.438,0.714c-0.164,0.209-0.359,0.395-0.582,0.562s-0.627,0.47-0.768,0.452
				c-0.089-0.012-0.287-0.271-0.421-0.442c-0.134-0.173-0.26-0.355-0.372-0.55c-0.111-0.193-0.21-0.393-0.296-0.6
				c-0.087-0.208-0.152-0.407-0.205-0.598c-0.064-0.253-0.101-0.379-0.166-0.632c-0.067-0.273-0.085-0.553-0.054-0.839
				c0.01-0.087,0.023-0.179,0.043-0.273c0.019-0.094,0.032-0.193,0.044-0.296c0.004-0.04,0.007-0.081,0.007-0.121
				s0.003-0.083,0.008-0.13c0.016-0.143,0.063-0.336,0.144-0.577c0.08-0.24,0.168-0.584,0.316-0.894
				c0.27-0.561,0.543-0.882,0.559-0.88c-0.001,0.009-0.001,0.016-0.002,0.025c0.17-0.246,0.354-0.472,0.553-0.674
				c0.198-0.202,0.524-0.515,0.66-0.515C158.803,54.218,159.455,54.745,159.655,55.061z M156.918,58.474
				c-0.009-0.074-0.062-0.157-0.081-0.155c-0.024,0.002-0.073,0.101-0.081,0.173c-0.003,0.023-0.004,0.035-0.007,0.059
				c0.057,0.006,0.102,0.004,0.135-0.009C156.896,58.515,156.905,58.501,156.918,58.474z M157.659,57.592
				c-0.002,0.019-0.003,0.029-0.005,0.048c-0.008,0.072-0.05,0.101-0.123,0.093c-0.072-0.008-0.147-0.091-0.14-0.159
				c0.01-0.085,0.099-0.238,0.139-0.37c0.04-0.132,0.129-0.416,0.124-0.422c-0.004-0.004-0.073,0.027-0.115,0.066
				s-0.082,0.089-0.121,0.149c-0.04,0.06-0.072,0.124-0.101,0.193s-0.049,0.132-0.055,0.188c-0.009,0.08-0.005,0.148,0.01,0.206
				c0.014,0.058,0.016,0.107,0.011,0.146c-0.003,0.024-0.006,0.043-0.016,0.058c-0.016,0.003-0.024,0.005-0.04,0.008
				c0.002-0.019,0.005-0.028,0.007-0.047c0.001-0.048,0.001-0.073,0.002-0.122c-0.051,0.083-0.098,0.16-0.138,0.232
				c-0.041,0.072-0.07,0.159-0.082,0.263c-0.005,0.047-0.004,0.084,0.002,0.109c0.01,0.001,0.016,0.002,0.025,0.003
				c0.052-0.11,0.078-0.166,0.13-0.275c0.026-0.021,0.05-0.032,0.065-0.03c0.024,0.003,0.04,0.01,0.044,0.018
				c0.018,0.035,0.042,0.08,0.086,0.089c0.044,0.009,0.072,0.074,0.054,0.107c-0.014,0.024-0.059,0.044-0.066,0.043
				c-0.017-0.002-0.033-0.018-0.056-0.044c-0.009,0.033-0.013,0.049-0.021,0.082c0.042,0.062,0.164,0.151,0.193,0.142
				c0.006-0.002,0.018-0.025,0.022-0.033c0.005-0.007,0.007-0.02,0.009-0.036c0.021-0.19,0.039-0.285,0.048-0.284
				c-0.001,0.005-0.003,0.006-0.004,0.011c-0.02-0.05-0.028-0.091-0.024-0.124c0.005-0.039,0.03-0.07,0.07-0.094
				c0.04-0.023,0.101-0.067,0.143-0.123c0.055-0.073,0.079-0.163,0.086-0.219c0.005-0.04,0.004-0.068-0.002-0.085
				C157.756,57.465,157.724,57.507,157.659,57.592z M157.406,58.541c0.002-0.026-0.097-0.096-0.153-0.102
				c-0.105-0.012-0.164,0.035-0.176,0.138c-0.004,0.032-0.004,0.065-0.004,0.102s-0.011,0.11-0.007,0.113
				c0.005,0.005,0.05-0.013,0.052-0.029c0.004-0.033,0.005-0.051,0.009-0.084c0.003-0.024,0.034-0.067,0.045-0.067
				c0.032,0,0.103,0.095,0.1,0.119s-0.033,0.041-0.088,0.051s-0.08,0.036-0.085,0.075s0.031,0.101,0.032,0.125
				c0.001,0.021-0.039,0.067-0.059,0.09c-0.019,0.022-0.029,0.04-0.031,0.056c-0.001,0.008,0.029,0.04,0.056,0.043
				c0.077,0.008,0.186-0.099,0.196-0.194c0.005-0.04,0.003-0.079-0.001-0.116c-0.004-0.036-0.003-0.07,0.001-0.103
				C157.302,58.678,157.403,58.569,157.406,58.541z M157.374,60.494c0.057-0.066,0.09-0.126,0.097-0.182
				c0.007-0.063-0.049-0.175-0.113-0.315c-0.007-0.015-0.007-0.045-0.002-0.084c0.006-0.047,0.017-0.086,0.037-0.117
				c0.02-0.03,0.033-0.056,0.036-0.08c0.005-0.039-0.029-0.075-0.086-0.107c-0.06-0.035-0.104-0.168-0.104-0.168
				c-0.006-0.001-0.093,0.166-0.103,0.253c-0.007,0.063-0.008,0.143,0.016,0.184c0.028,0.049,0.083,0.113,0.093,0.175
				c0.009,0.061,0.013,0.123,0.014,0.187c0.001,0.064,0.006,0.128,0.02,0.191c0.013,0.062,0.053,0.116,0.121,0.164
				C157.39,60.554,157.384,60.534,157.374,60.494z M158.518,55.36c-0.019-0.059-0.055-0.091-0.104-0.097
				c-0.065-0.008-0.167,0.057-0.307,0.194c-0.141,0.137-0.542,0.601-0.542,0.601c0.002,0.002,0.146-0.05,0.209-0.055
				c0.063-0.004,0.107-0.033,0.13-0.086C158.149,55.694,158.271,55.583,158.518,55.36z M157.615,59.266
				c0.015-0.127-0.143-0.682-0.143-0.682c-0.004,0-0.041,0.138-0.046,0.177c-0.01,0.087-0.001,0.185,0.027,0.293
				c-0.005,0.082-0.008,0.122-0.013,0.204c0.055,0.167,0.106,0.262,0.153,0.283C157.603,59.431,157.607,59.376,157.615,59.266z
				 M159.15,54.975c-0.271,0.241-0.603,0.605-0.991,1.091c-0.015-0.001-0.023-0.002-0.038-0.003
				c-0.011-0.035-0.015-0.053-0.025-0.088c-0.052,0.018-0.081,0.047-0.09,0.086s-0.047,0.098-0.045,0.115
				c0.002,0.015,0.032,0.053,0.029,0.077c-0.009,0.08-0.099,0.099-0.128,0.116c-0.019,0.011-0.033,0.071-0.04,0.099
				c-0.008,0.027-0.013,0.057-0.017,0.089c-0.005,0.04,0.038,0.21,0.038,0.21c0.002,0,0.042-0.149,0.081-0.233
				s0.065-0.219,0.112-0.288c0.154-0.226,0.43-0.364,0.431-0.372c-0.005,0-0.006-0.001-0.011-0.002
				c0.213-0.192,0.509-0.357,0.607-0.483c0.046-0.059,0.061-0.207,0.074-0.318C159.144,55.033,159.146,55.013,159.15,54.975z
				 M158.244,56.73c0.017-0.025,0.023-0.073,0.035-0.104c0.012-0.031,0.021-0.057,0.024-0.081c0.005-0.04-0.014-0.098-0.026-0.101
				c-0.063-0.015-0.498,0.643-0.477,0.681c0.009,0.016,0.16-0.027,0.207-0.114C158.056,56.923,158.184,56.823,158.244,56.73z
				 M157.731,60.173c0.004,0,0.015-0.034,0.018-0.058c0.005-0.04-0.01-0.083-0.036-0.126c-0.027-0.043-0.114-0.157-0.114-0.157
				C157.594,59.834,157.72,60.174,157.731,60.173z M157.901,61.316c0.012-0.031,0.021-0.074,0.027-0.129
				c0.011-0.095-0.002-0.194-0.04-0.294c-0.123-0.111-0.187-0.167-0.311-0.278c0.049,0.144,0.098,0.284,0.146,0.423
				c0.048,0.138,0.098,0.275,0.147,0.41c0.063,0.046,0.095,0.069,0.157,0.115c0.013-0.038,0.024-0.08,0.033-0.124
				c0.009-0.042,0.017-0.083,0.021-0.124c0.003-0.023,0.003-0.049,0.002-0.077c-0.001-0.029,0.002-0.055,0.005-0.078
				C158.015,61.223,157.977,61.252,157.901,61.316z M158.44,61.068c0.068,0.009,0.417-0.51,0.616-0.972
				c0.2-0.463,0.34-1.024,0.421-1.684c0.056-0.453,0.074-0.901,0.055-1.347s-0.271-1.443-0.308-1.453
				c-0.031-0.008-0.253,0.263-0.34,0.43c-0.086,0.167-0.25,0.328-0.355,0.467c-0.415,0.547-0.614,1.431-0.695,2.13
				c-0.019,0.159-0.029,0.314-0.031,0.467c-0.001,0.153,0.004,0.315,0.037,0.439c0.068,0.252,0.187,0.533,0.263,0.792
				C158.178,60.596,158.394,61.063,158.44,61.068z M157.883,60.639c0.019,0.012,0.026,0.017,0.045,0.029
				c0.016,0.002,0.026-0.005,0.028-0.021c0.005-0.04-0.082-0.239-0.082-0.239c-0.003,0-0.035,0.062-0.064,0.07
				c-0.028,0.009-0.046,0.022-0.048,0.038c0.009,0.011,0.014,0.016,0.022,0.026C157.824,60.58,157.843,60.6,157.883,60.639z
				 M158.915,55.068c-0.004-0.033-0.042-0.115-0.11-0.243c-0.075,0.087-0.113,0.133-0.188,0.221
				c0.034-0.004,0.085-0.004,0.151,0.004C158.826,55.057,158.856,55.062,158.915,55.068z"/>
		</g>
	</g>
</g>
<g id="Vrstva_4">
	<path fill="#F5E721" d="M136.267,62.524c0,0-2.423-0.177-2.079,2.274c0,0,1.533-0.58,2.267-0.455L136.267,62.524z"/>
	<path fill="#F8AA12" d="M134.658,64.639c0,0,1.205,0.738,2.102,0.55L136.804,64L134.658,64.639z"/>
	<path fill="#73CAEA" d="M143.25,72.099c0,0-3.021-5.97-2.778-7.489l-0.01,0.002c0.178-0.331,0.288-0.704,0.288-1.106
		c0-1.298-1.052-2.35-2.35-2.35c-1.299,0-2.351,1.052-2.351,2.35c0,0.917,0.53,1.702,1.296,2.089
		c-0.186,1.076-0.775,5.924,3.404,7.071C140.75,72.667,144.375,74.051,143.25,72.099z"/>
	<path fill="#E94A32" d="M143.443,71.378c-0.448-1.969-0.974-4.12-1.191-5.004c-0.02-0.128-0.05-0.251-0.092-0.372
		c-0.007-0.028-0.012-0.046-0.012-0.046l-0.003,0c-0.294-0.786-1.045-1.347-1.934-1.347c-1.143,0-2.069,0.927-2.069,2.07
		c0,0.064,0.013,0.125,0.019,0.187c-0.005,0.008-0.017,0.017-0.019,0.025c0,0,0.011,0.056,0.036,0.155
		c0.028,0.154,0.069,0.302,0.128,0.442c0.327,1.035,1.199,3.162,3.083,4.276C141.39,71.766,144.023,73.931,143.443,71.378z"/>
	<circle fill="#090916" cx="138.497" cy="63.063" r="0.354"/>
	<path fill="#73CAEA" d="M139.785,61.648c0,0,1.014-0.366,1.796,0.017c0,0-0.992,0.343-0.978,0.685
		c0.016,0.342,0.094-0.085,0.327,0.075c0.234,0.159-0.549,0.353-0.427,0.498C140.626,63.068,139.677,62.255,139.785,61.648z"/>
</g>
</svg>
